<svg xmlns="http://www.w3.org/2000/svg" viewBox="0 0 180 244.76"><defs><style>.cls-1{fill:#dcdcdc;}.cls-2{fill:#3697d4;}.cls-3{fill:#ed761b;}.cls-4{fill:#3596d4;}.cls-5{fill:#ee761c;}</style></defs><title>資產 39</title><g id="圖層_2" data-name="圖層 2"><g id="圖層_1-2" data-name="圖層 1"><rect class="cls-1" y="0.08" width="180" height="244.69"/><circle class="cls-2" cx="87.62" cy="61.17" r="61.17"/><path class="cls-3" d="M90,123.1h0l-1.46-.18-.34-.2,2.18.29.31.2-.86.14h0c.59.09.88.15,1.46.26l.31.2-1.34.1-.33-.19.94-.06h0l-1.52-.26-.25-.15Z"/><path class="cls-3" d="M89.75,121.77c.22,0,.34,0,.35.11s-.08.19-.29.32-.37.24-.38.33-.14.12-.36.11h-.32a2.64,2.64,0,0,1-.74-.12c-.28-.08-.26-.18-.05-.3a3.57,3.57,0,0,1,.74-.3,2.74,2.74,0,0,1,.73-.14Zm-.66.22a1.48,1.48,0,0,0-.44.07,1.67,1.67,0,0,0-.41.16c-.11.07-.16.12-.13.16a.5.5,0,0,0,.3.06h.33a1.21,1.21,0,0,0,.4-.07,1.31,1.31,0,0,0,.4-.17c.11-.07.15-.13.13-.17s-.11,0-.25,0Z"/><path class="cls-3" d="M90.37,121.39l.7,0-.33.21-1.77.08.65-.37a3.94,3.94,0,0,1,.59-.28,2.62,2.62,0,0,1,.54-.13c.09,0,.14,0,.16,0s0,0,0,.11a1.73,1.73,0,0,1,.36-.15l.33-.06.12,0,.17,0,.18-.05h0l-.34.23-.19,0-.18,0h-.13l-.26.06a1.11,1.11,0,0,0-.27.12Zm-.27,0,.29-.18q.15-.09.15-.12s0,0-.11,0a.85.85,0,0,0-.26,0,1.43,1.43,0,0,0-.28.13l-.3.18Z"/><path class="cls-3" d="M92.28,120.56l-1.71.17.58-.34a4.84,4.84,0,0,1,.72-.33,4.14,4.14,0,0,1,.7-.19l.28,0c.2,0,.3,0,.3,0s-.1.17-.31.31Zm-1.11-.06,1.18-.13.22-.14c.12-.08.17-.13.16-.17s-.09,0-.22,0l-.28,0a2.53,2.53,0,0,0-.42.1,3.14,3.14,0,0,0-.41.19Z"/><path class="cls-3" d="M92.93,123.55h0l-1.78-.27-.39-.27c1.06.15,1.59.24,2.64.42l.37.28-1.06.18h0c.72.14,1.07.22,1.77.38l.36.29c-.66,0-1,.08-1.63.1l-.4-.27c.46,0,.69,0,1.16-.06h0c-.73-.17-1.09-.25-1.83-.4l-.3-.2C92.27,123.67,92.49,123.63,92.93,123.55Z"/><path class="cls-3" d="M92.21,121.69c.27,0,.41,0,.44.15s-.08.27-.32.46,0,.34,0,.46-.18.16-.45.15h-.4a3.26,3.26,0,0,1-.9-.18c-.33-.11-.81-.25-.56-.42a3.59,3.59,0,0,1,.88-.42,3,3,0,0,1,.9-.18Zm-.8.3a2.77,2.77,0,0,0-.54.09,2,2,0,0,0-.49.23c-.13.1,0,.17.17.23a2.14,2.14,0,0,0,.54.08h.41c.17,0,.28,0,.32-.08a.44.44,0,0,1,.16-.24c.14-.1.18-.18.15-.24S92,122,91.81,122Z"/><path class="cls-3" d="M92.93,121.17l.87-.06-.39.31-2.18.1L92,121a3.76,3.76,0,0,1,.71-.38,2.38,2.38,0,0,1,.65-.18q.16,0,.21,0s0,.08,0,.15a2.41,2.41,0,0,1,.44-.2,1.46,1.46,0,0,1,.39-.09l.16,0,.2,0a.72.72,0,0,0,.22-.08h0l-.4.32-.22.07-.23,0H94a1.13,1.13,0,0,0-.33.08,1.39,1.39,0,0,0-.31.18Zm-.33,0,.34-.25c.12-.09.17-.14.18-.18s-.05-.05-.15,0a1.42,1.42,0,0,0-.31.08,1.19,1.19,0,0,0-.33.18l-.36.24Z"/><path class="cls-3" d="M95.21,120l-2.1.24.7-.47a4.83,4.83,0,0,1,.85-.46,4.09,4.09,0,0,1,.85-.27l.33-.06c.25,0,.37,0,.38.07s-.11.24-.35.42Zm-1.37-.08,1.43-.19.26-.19q.21-.17.18-.24s-.11,0-.27,0l-.34.06a1.82,1.82,0,0,0-.51.15,2.19,2.19,0,0,0-.48.26Z"/><path class="cls-3" d="M96.47,124.22h0c-.85-.17-1.28-.26-2.15-.41l-.46-.38c1.3.23,1.94.35,3.21.63l.42.4-1.32.22h0c.86.22,1.29.33,2.13.57l.42.4c-.82.06-1.22.09-2,.11l-.47-.38,1.42-.06h0c-.87-.24-1.31-.36-2.2-.58l-.35-.28C95.65,124.37,95.92,124.32,96.47,124.22Z"/><path class="cls-3" d="M95.16,121.6c.34,0,.52.06.56.22s-.53.38-.25.65.39.48.34.64-.23.22-.56.21l-.49,0a3.46,3.46,0,0,1-1.09-.25,3.8,3.8,0,0,1-1-.59c-.3-.24.54-.43.94-.59a3.55,3.55,0,0,1,1.1-.26Zm-1,.42a2.31,2.31,0,0,0-.66.12c-.23.08-.64.19-.48.32a1.76,1.76,0,0,0,.57.32,2.71,2.71,0,0,0,.66.12h.5c.21,0,.34,0,.4-.11s0-.19-.16-.33.12-.27.07-.34-.19-.12-.4-.12Z"/><path class="cls-3" d="M96,120.86l1.06-.07-.45.43-2.68.13.89-.73a4.45,4.45,0,0,1,.83-.53,2.6,2.6,0,0,1,.79-.26c.14,0,.22,0,.25,0s0,.11,0,.21a3,3,0,0,1,.52-.28,1.92,1.92,0,0,1,.48-.13l.19,0,.25,0a1,1,0,0,0,.26-.11h0l-.46.44a.79.79,0,0,1-.27.1,1.47,1.47,0,0,1-.27,0l-.19,0a1.07,1.07,0,0,0-.4.12,1.67,1.67,0,0,0-.37.24Zm-.41,0,.4-.36c.12-.11.19-.19.19-.24s-.06-.07-.18-.06a1.23,1.23,0,0,0-.38.11,1.36,1.36,0,0,0-.39.25l-.42.35Z"/><path class="cls-3" d="M98.7,119.21l-2.56.35.81-.66a5.75,5.75,0,0,1,1-.65,4.2,4.2,0,0,1,1-.38l.41-.09c.3-.07.45,0,.47.1s-.12.33-.39.59Zm-1.7-.1,1.75-.27.3-.28c.16-.15.23-.26.2-.33s-.14-.07-.33,0l-.42.08a3,3,0,0,0-.61.21,3.38,3.38,0,0,0-.58.37Z"/><path class="cls-3" d="M100.75,125.22h0c-1-.26-1.55-.38-2.59-.62l-.53-.53c1.57.34,2.34.52,3.87.93l.46.57c-.65.14-1,.19-1.62.29h0c1,.32,1.54.49,2.55.85l.46.57c-1,.07-1.48.08-2.44.08l-.54-.53c.69,0,1,0,1.74,0h0c-1-.37-1.57-.54-2.64-.87l-.4-.4C99.73,125.41,100.06,125.36,100.75,125.22Z"/><path class="cls-3" d="M98.82,121.49c.41,0,.65.09.72.32s-.15.54.16.92.42.69.35.91-.3.32-.71.3l-.59,0a3.47,3.47,0,0,1-1.32-.38,4.06,4.06,0,0,1-1.21-.83c-.34-.34.19-.61.67-.84a3.42,3.42,0,0,1,1.33-.35Zm-1.13.59a2.37,2.37,0,0,0-.8.18c-.28.11-.32.26-.14.44a1.92,1.92,0,0,0,.68.45,2.26,2.26,0,0,0,.79.18l.6,0q.41,0,.51-.15c.07-.11,0-.27-.16-.47s-.28-.37-.36-.49-.24-.17-.5-.16Z"/><path class="cls-3" d="M99.78,120.43l1.31-.09-.5.62-3.31.17,1-1a4.55,4.55,0,0,1,1-.76,2.58,2.58,0,0,1,.94-.36c.17,0,.27,0,.32.06s0,.16,0,.3a2.89,2.89,0,0,1,.61-.4,1.68,1.68,0,0,1,.58-.18l.23,0a2.26,2.26,0,0,0,.3-.08.81.81,0,0,0,.31-.15h0l-.52.63a.84.84,0,0,1-.32.14l-.34.06-.22,0a1.3,1.3,0,0,0-.48.16,1.79,1.79,0,0,0-.43.35Zm-.5,0,.45-.5a.68.68,0,0,0,.22-.35c0-.07-.08-.1-.23-.08a1.45,1.45,0,0,0-.46.15,2.14,2.14,0,0,0-.46.36l-.47.49Z"/><path class="cls-3" d="M102.92,118.09l-3.12.5c.38-.38.56-.57.94-.94a6.07,6.07,0,0,1,1.17-.91,4.26,4.26,0,0,1,1.21-.56l.49-.13c.36-.09.56,0,.59.13s-.11.47-.42.85S103.27,117.67,102.92,118.09Zm-2.1-.14,2.13-.39.34-.4c.18-.22.25-.38.21-.47s-.18-.1-.42,0l-.5.12a2.89,2.89,0,0,0-.73.3,3.16,3.16,0,0,0-.67.52Z"/><path class="cls-3" d="M105.23,126.14h0c-1.12-.34-1.68-.5-2.82-.8l-.53-.68c1.7.44,2.54.68,4.2,1.2l.46.73c-.74.17-1.11.24-1.83.37h0c1.11.42,1.66.63,2.75,1.09.18.29.27.44.46.73-1.12.09-1.66.11-2.73.12-.22-.28-.33-.41-.54-.69.76,0,1.15,0,1.93-.05v0c-1.13-.46-1.7-.69-2.85-1.11l-.41-.52C104.07,126.39,104.45,126.31,105.23,126.14Z"/><path class="cls-3" d="M103.09,121.35c.46,0,.74.12.84.42a3.79,3.79,0,0,0,.37,1.19,1.42,1.42,0,0,1,.31,1.16c-.1.29-.37.41-.82.38l-.66,0a3.4,3.4,0,0,1-1.42-.49,4.22,4.22,0,0,1-1.26-1.07c-.34-.44,0-.79.53-1.07a3.19,3.19,0,0,1,1.45-.45Zm-1.2.77a2,2,0,0,0-.87.21c-.3.15-.17.33,0,.58a2.09,2.09,0,0,0,.7.58,2.13,2.13,0,0,0,.86.23l.67,0c.3,0,.49,0,.58-.19s0-.35-.13-.61-.47-.48-.56-.63-.28-.21-.58-.21Z"/><path class="cls-3" d="M104.06,120l1.44-.11c-.19.32-.29.48-.49.79l-3.68.2,1-1.33a4.9,4.9,0,0,1,1-1,2.41,2.41,0,0,1,1-.45c.19,0,.3,0,.36.08a.48.48,0,0,1,0,.4,2.84,2.84,0,0,1,.63-.52,1.76,1.76,0,0,1,.63-.22l.26,0,.33-.09a1.06,1.06,0,0,0,.33-.19h0l-.51.82a.88.88,0,0,1-.35.17,3.11,3.11,0,0,1-.37.08l-.25,0a1.21,1.21,0,0,0-.51.2,1.92,1.92,0,0,0-.45.45C104.35,119.57,104.26,119.72,104.06,120Zm-.56,0,.45-.64a.85.85,0,0,0,.21-.46c0-.09-.1-.13-.27-.11a1.18,1.18,0,0,0-.49.2,1.88,1.88,0,0,0-.48.46l-.48.63Z"/><path class="cls-3" d="M107.32,117l-3.44.6,1-1.21a6.08,6.08,0,0,1,1.21-1.16,4.15,4.15,0,0,1,1.29-.7l.54-.16c.4-.11.62-.06.68.18a1.7,1.7,0,0,1-.37,1.09ZM105,116.8l2.34-.48.33-.51c.18-.28.24-.48.19-.6s-.21-.14-.47-.07l-.55.14a2.48,2.48,0,0,0-.79.38,2.93,2.93,0,0,0-.69.67C105.17,116.51,105.1,116.61,105,116.8Z"/><path class="cls-3" d="M110.14,127.32v0c-1.2-.42-1.82-.63-3-1l-.53-.88c1.85.56,2.76.87,4.56,1.54l.44.93c-.84.22-1.26.31-2.07.48h0c1.19.53,1.78.8,3,1.38l.44.94c-1.25.12-1.86.15-3,.17-.22-.36-.32-.54-.54-.89.86,0,1.29,0,2.17-.08v0c-1.21-.59-1.82-.87-3.06-1.4l-.4-.67C108.84,127.64,109.27,127.54,110.14,127.32Z"/><path class="cls-3" d="M107.87,121.21a.88.88,0,0,1,1,.53,15.91,15.91,0,0,0,.58,1.52,2,2,0,0,1,.23,1.49c-.14.36-.45.51-1,.47l-.72,0a3.16,3.16,0,0,1-1.53-.62,4.39,4.39,0,0,1-1.3-1.38c-.34-.55-.13-1,.41-1.37a3.08,3.08,0,0,1,1.57-.57Zm-1.26,1c-.33,0-.82.09-.92.27s-.07.42.11.74a2.07,2.07,0,0,0,.73.74,2,2,0,0,0,.93.3l.74,0a.64.64,0,0,0,.65-.24c.12-.18.09-.44-.07-.77a2,2,0,0,0-.71-.8c-.3-.19-.37-.28-.7-.28Z"/><path class="cls-3" d="M108.81,119.48l1.61-.13c-.2.41-.29.61-.48,1l-4.08.22,1-1.69a4.85,4.85,0,0,1,1-1.25,2.18,2.18,0,0,1,1.09-.57.39.39,0,0,1,.41.1.7.7,0,0,1,0,.52,2.93,2.93,0,0,1,.66-.66,1.59,1.59,0,0,1,.68-.28l.28,0a1.66,1.66,0,0,0,.37-.11,1.21,1.21,0,0,0,.35-.24h0c-.19.42-.29.63-.49,1a.87.87,0,0,1-.37.22,1.73,1.73,0,0,1-.4.09l-.28,0a1.06,1.06,0,0,0-.56.26,1.89,1.89,0,0,0-.45.57Zm-.62,0,.45-.82a1.07,1.07,0,0,0,.18-.58c0-.11-.12-.16-.31-.14a1.17,1.17,0,0,0-.53.25,2.06,2.06,0,0,0-.49.58l-.47.81Z"/><path class="cls-3" d="M112.16,115.68l-3.78.72.92-1.54a6.73,6.73,0,0,1,1.24-1.49,4.05,4.05,0,0,1,1.38-.88l.59-.19c.43-.14.69-.06.78.25A2.3,2.3,0,0,1,113,114Zm-2.67-.31,2.57-.57c.13-.27.2-.4.33-.66a1,1,0,0,0,.15-.77c-.08-.15-.26-.18-.54-.1l-.6.17a2.26,2.26,0,0,0-.84.48,2.92,2.92,0,0,0-.72.84Z"/><path class="cls-3" d="M115.19,128.78v0c-1.31-.54-2-.8-3.3-1.28l-.51-1.11c2,.71,3,1.1,4.92,1.94l.41,1.18c-1,.27-1.43.39-2.34.59v0c1.28.66,1.91,1,3.15,1.74l.42,1.18a34,34,0,0,1-3.42.22c-.2-.45-.31-.67-.51-1.12.95,0,1.43,0,2.41-.1v0c-1.29-.74-1.94-1.1-3.27-1.78-.16-.33-.23-.5-.39-.83C113.71,129.17,114.19,129.05,115.19,128.78Z"/><path class="cls-3" d="M112.85,121.06a1.05,1.05,0,0,1,1.13.68c.2.48.48,1.13.75,1.92a2.75,2.75,0,0,1,.13,1.86,1,1,0,0,1-1.09.61l-.8-.08a3,3,0,0,1-1.64-.78,5,5,0,0,1-1.33-1.74,1.29,1.29,0,0,1,.33-1.73,3,3,0,0,1,1.7-.72Zm-1.32,1.22a1.06,1.06,0,0,0-.87.34,1,1,0,0,0,.06.93,2.31,2.31,0,0,0,.75.93,1.88,1.88,0,0,0,1,.38l.82,0a.76.76,0,0,0,.74-.3,1.13,1.13,0,0,0,0-1,2.11,2.11,0,0,0-.72-1,1.33,1.33,0,0,0-.92-.35Z"/><path class="cls-3" d="M113.75,118.88l1.77-.15c-.17.51-.26.76-.44,1.27l-4.52.25c.39-.85.58-1.28,1-2.14a5.55,5.55,0,0,1,1-1.57,2.17,2.17,0,0,1,1.17-.72.42.42,0,0,1,.46.14,1,1,0,0,1,.1.66,3,3,0,0,1,.68-.84,1.76,1.76,0,0,1,.73-.35l.31-.05a1.6,1.6,0,0,0,.4-.14,1.07,1.07,0,0,0,.37-.3h.06l-.46,1.32a1,1,0,0,1-.39.27,3.13,3.13,0,0,1-.44.11l-.31,0a1.13,1.13,0,0,0-.6.33,2.11,2.11,0,0,0-.45.72Zm-.69.06.42-1a1.32,1.32,0,0,0,.15-.74c0-.15-.15-.21-.35-.18a1.07,1.07,0,0,0-.58.31,2.45,2.45,0,0,0-.49.73l-.44,1Z"/><path class="cls-3" d="M117.14,114.1,113,115c.36-.78.54-1.17.89-2a7.2,7.2,0,0,1,1.25-1.87,3.83,3.83,0,0,1,1.47-1.1l.64-.23c.47-.17.77-.07.89.33a3,3,0,0,1-.21,1.77Zm-3-.43L117,113l.3-.83a1.4,1.4,0,0,0,.1-1c-.1-.19-.3-.24-.61-.14l-.66.21a2.3,2.3,0,0,0-.9.59,3.36,3.36,0,0,0-.72,1.07Z"/><path class="cls-3" d="M120.52,130.59v0c-1.41-.67-2.12-1-3.56-1.61l-.48-1.4c2.17.9,3.23,1.39,5.31,2.45.14.59.21.89.36,1.48-1.09.34-1.62.49-2.66.74v0c1.37.84,2,1.27,3.37,2.18.14.6.22.89.36,1.49a34,34,0,0,1-3.82.27l-.47-1.4c1.06,0,1.59,0,2.69-.13v0c-1.37-.94-2.07-1.38-3.49-2.23-.15-.42-.22-.63-.36-1.06C118.85,131.08,119.4,130.93,120.52,130.59Z"/><path class="cls-3" d="M118.24,120.9a1.27,1.27,0,0,1,1.31.87,14,14,0,0,1,.89,2.4,3.73,3.73,0,0,1,0,2.34,1.1,1.1,0,0,1-1.25.75l-.88-.09a3,3,0,0,1-1.76-1,5.66,5.66,0,0,1-1.32-2.19,1.88,1.88,0,0,1,.29-2.17,2.82,2.82,0,0,1,1.82-.89Zm-1.37,1.53a.92.92,0,0,0-.86.43,1.43,1.43,0,0,0,0,1.16,2.61,2.61,0,0,0,.75,1.17,1.82,1.82,0,0,0,1.09.48l.91.07a.83.83,0,0,0,.84-.38,1.53,1.53,0,0,0,.06-1.22,2.43,2.43,0,0,0-.71-1.26,1.63,1.63,0,0,0-1.12-.45Z"/><path class="cls-3" d="M119.05,118.17l2-.18c-.16.64-.23,1-.39,1.6l-5,.29c.37-1.08.55-1.61.91-2.69a6.6,6.6,0,0,1,1-2,2.13,2.13,0,0,1,1.24-.89.46.46,0,0,1,.53.18,1.45,1.45,0,0,1,.17.82,3.4,3.4,0,0,1,.68-1,1.7,1.7,0,0,1,.79-.44l.34-.06a1.47,1.47,0,0,0,.43-.17,1.06,1.06,0,0,0,.39-.37l.07,0-.4,1.65a.92.92,0,0,1-.42.34,2.54,2.54,0,0,1-.48.14l-.34,0a1.07,1.07,0,0,0-.64.4,2.34,2.34,0,0,0-.44.91C119.3,117.3,119.21,117.59,119.05,118.17Zm-.76.07c.15-.51.23-.77.38-1.29a1.85,1.85,0,0,0,.11-.92.32.32,0,0,0-.41-.24,1.12,1.12,0,0,0-.62.39,2.63,2.63,0,0,0-.48.92c-.17.51-.25.77-.41,1.28Z"/><path class="cls-3" d="M122.44,112.19l-4.58,1,.83-2.45a8.56,8.56,0,0,1,1.23-2.34,3.9,3.9,0,0,1,1.55-1.37l.7-.28c.51-.2.85-.07,1,.43a4.08,4.08,0,0,1-.09,2.22C122.84,110.54,122.7,111.09,122.44,112.19Zm-3.4-.57,3.09-.84c.11-.42.16-.63.27-1a1.87,1.87,0,0,0,0-1.22c-.13-.24-.36-.3-.7-.18l-.71.25a2.29,2.29,0,0,0-1,.74,4,4,0,0,0-.71,1.33C119.22,111,119.16,111.24,119,111.62Z"/><path class="cls-3" d="M126.49,132.9v0c-1.5-.85-2.26-1.26-3.81-2l-.41-1.76a63.45,63.45,0,0,1,5.68,3.08c.11.75.17,1.12.28,1.86-1.24.43-1.84.61-3,.94v0c1.45,1,2.17,1.59,3.56,2.73.11.75.17,1.12.28,1.86a34.16,34.16,0,0,1-4.27.36c-.17-.7-.25-1.06-.41-1.76,1.18,0,1.78-.06,3-.17v0c-1.45-1.17-2.19-1.73-3.7-2.8l-.3-1.33C124.58,133.52,125.21,133.33,126.49,132.9Z"/><path class="cls-3" d="M124.43,120.73a1.55,1.55,0,0,1,1.54,1.09,11.19,11.19,0,0,1,1,3,5.42,5.42,0,0,1-.21,2.94,1.33,1.33,0,0,1-1.46.94l-1-.12a3,3,0,0,1-1.86-1.25,6.74,6.74,0,0,1-1.28-2.75,2.89,2.89,0,0,1,.31-2.73,2.73,2.73,0,0,1,2-1.11Zm-1.31,1.91a1.09,1.09,0,0,0-1,.53,2,2,0,0,0-.1,1.47,2.92,2.92,0,0,0,.73,1.47,1.73,1.73,0,0,0,1.16.61l1,.09a1,1,0,0,0,1-.47,2.28,2.28,0,0,0,.16-1.53,3,3,0,0,0-.68-1.59,1.6,1.6,0,0,0-1.21-.57Z"/><path class="cls-3" d="M125.11,117.3l2.17-.22c-.12.8-.18,1.2-.29,2l-5.57.33.78-3.38a8,8,0,0,1,1-2.48,2.2,2.2,0,0,1,1.31-1.11.53.53,0,0,1,.61.23,2.23,2.23,0,0,1,.26,1,3.87,3.87,0,0,1,.67-1.31,1.64,1.64,0,0,1,.84-.54l.38-.08a1.41,1.41,0,0,0,.47-.2,1.24,1.24,0,0,0,.4-.47h.08c-.13.82-.19,1.24-.31,2.06a1,1,0,0,1-.44.43,2.49,2.49,0,0,1-.53.17l-.37.06a1,1,0,0,0-.68.5,3,3,0,0,0-.42,1.14C125.3,116.2,125.24,116.57,125.11,117.3Zm-.85.08c.13-.65.19-1,.32-1.63a2.74,2.74,0,0,0,0-1.16.39.39,0,0,0-.48-.3,1.05,1.05,0,0,0-.66.48,3.15,3.15,0,0,0-.45,1.16l-.35,1.61Z"/><path class="cls-3" d="M128.37,109.79l-5,1.28c.28-1.23.43-1.85.71-3.08a10,10,0,0,1,1.18-2.94,4,4,0,0,1,1.61-1.7l.76-.35c.56-.25,1-.07,1.18.56a5.77,5.77,0,0,1,.09,2.8C128.68,107.73,128.58,108.42,128.37,109.79Zm-3.85-.75,3.39-1c.09-.52.13-.78.21-1.3a2.59,2.59,0,0,0-.07-1.53.57.57,0,0,0-.8-.25l-.78.31a2.31,2.31,0,0,0-1,.92,4.69,4.69,0,0,0-.68,1.67C124.68,108.31,124.63,108.56,124.52,109Z"/><path class="cls-3" d="M132.67,135.75v-.05c-1.6-1.07-2.41-1.58-4.07-2.55-.12-.88-.19-1.32-.31-2.2a63.92,63.92,0,0,1,6.05,3.87l.17,2.32c-1.41.53-2.09.76-3.42,1.16v0c1.53,1.31,2.28,2,3.74,3.42.06.93.09,1.39.16,2.32a33.91,33.91,0,0,1-4.77.45c-.13-.88-.19-1.32-.32-2.2,1.31,0,2-.08,3.35-.21v0c-1.52-1.47-2.29-2.17-3.88-3.5-.09-.67-.14-1-.24-1.66C130.5,136.52,131.21,136.28,132.67,135.75Z"/><path class="cls-3" d="M131,120.55c.77,0,1.37.42,1.81,1.37a10.91,10.91,0,0,1,.95,3.78,7.61,7.61,0,0,1-.46,3.66c-.41.9-1,1.27-1.69,1.17l-1.07-.15a3,3,0,0,1-2-1.57,8.48,8.48,0,0,1-1.2-3.44,4.56,4.56,0,0,1,.41-3.4,2.77,2.77,0,0,1,2.09-1.39Zm-1.28,2.39a1.23,1.23,0,0,0-1.14.66,2.84,2.84,0,0,0-.24,1.82,3.8,3.8,0,0,0,.69,1.85,1.8,1.8,0,0,0,1.25.76l1.1.11a1.1,1.1,0,0,0,1.12-.58,3.24,3.24,0,0,0,.3-1.91,3.78,3.78,0,0,0-.63-2,1.58,1.58,0,0,0-1.3-.71Z"/><path class="cls-3" d="M131.51,116.27l2.41-.26c-.07,1-.1,1.5-.17,2.5l-6.18.39.6-4.23a9.94,9.94,0,0,1,.87-3.09,2.3,2.3,0,0,1,1.37-1.38.6.6,0,0,1,.7.3,3.06,3.06,0,0,1,.37,1.29,4.63,4.63,0,0,1,.65-1.62,1.55,1.55,0,0,1,.89-.66l.42-.1a1.6,1.6,0,0,0,.5-.26,1.37,1.37,0,0,0,.42-.57l.08,0c-.08,1-.11,1.54-.18,2.58a1,1,0,0,1-.46.52,1.81,1.81,0,0,1-.57.21l-.41.07a1.1,1.1,0,0,0-.72.62,3.9,3.9,0,0,0-.37,1.42C131.64,114.9,131.6,115.35,131.51,116.27Zm-.93.1c.08-.82.13-1.23.22-2a3.76,3.76,0,0,0-.05-1.45c-.11-.3-.29-.42-.56-.37a1,1,0,0,0-.69.59,3.92,3.92,0,0,0-.42,1.44c-.1.81-.16,1.21-.26,2Z"/><path class="cls-3" d="M134.55,106.91l-5.5,1.56c.22-1.54.32-2.31.54-3.85a12.82,12.82,0,0,1,1.07-3.67,4.36,4.36,0,0,1,1.67-2.11l.82-.42c.61-.31,1.06-.08,1.37.71a8.36,8.36,0,0,1,.33,3.5Zm-4.36-1,3.71-1.25c0-.65.07-1,.13-1.63a3.81,3.81,0,0,0-.21-1.92.63.63,0,0,0-.91-.31l-.85.38a2.38,2.38,0,0,0-1.05,1.13,6.21,6.21,0,0,0-.62,2.09Z"/><path class="cls-3" d="M139.1,139.26v-.06c-1.7-1.34-2.56-2-4.33-3.19-.07-1.09-.1-1.63-.17-2.73a65.67,65.67,0,0,1,6.42,4.83V141c-1.59.64-2.37.93-3.88,1.42v.07c1.59,1.62,2.37,2.48,3.88,4.25v2.89a36.68,36.68,0,0,1-5.33.55c-.07-1.1-.11-1.65-.18-2.74a37.35,37.35,0,0,0,3.73-.26v-.06c-1.57-1.82-2.38-2.69-4-4.36-.05-.82-.08-1.23-.13-2.06C136.64,140.2,137.44,139.91,139.1,139.26Z"/><path class="cls-3" d="M138.14,120.37c.86,0,1.55.53,2.12,1.72a11.24,11.24,0,0,1,.85,4.69,10.93,10.93,0,0,1-.79,4.55c-.52,1.1-1.17,1.57-2,1.44l-1.17-.19c-.79-.14-1.47-.8-2.06-2a10.79,10.79,0,0,1-1.08-4.28,7.46,7.46,0,0,1,.62-4.22,2.81,2.81,0,0,1,2.22-1.72Zm-1.31,3a1.45,1.45,0,0,0-1.31.81,4.08,4.08,0,0,0-.4,2.27,4.61,4.61,0,0,0,.63,2.3,1.82,1.82,0,0,0,1.32.95l1.21.14a1.27,1.27,0,0,0,1.29-.72,4.64,4.64,0,0,0,.48-2.37,4.86,4.86,0,0,0-.55-2.47,1.63,1.63,0,0,0-1.38-.9Z"/><path class="cls-3" d="M138.34,115.05l2.67-.31v3.11l-6.85.46.34-5.27a13,13,0,0,1,.73-3.84c.38-1,.85-1.56,1.43-1.71a.7.7,0,0,1,.8.38,4.4,4.4,0,0,1,.51,1.61,5.59,5.59,0,0,1,.6-2,1.55,1.55,0,0,1,1-.82l.45-.12a1.35,1.35,0,0,0,.54-.32,1.42,1.42,0,0,0,.42-.71l.09,0v3.2a1.09,1.09,0,0,1-.47.65,2.11,2.11,0,0,1-.62.26l-.45.09c-.32.06-.57.32-.76.76a4.9,4.9,0,0,0-.3,1.76Zm-1,.11c0-1,.06-1.52.09-2.53a5.3,5.3,0,0,0-.16-1.8c-.14-.38-.36-.53-.65-.47s-.54.31-.73.73a5.23,5.23,0,0,0-.35,1.79c-.06,1-.09,1.51-.14,2.51Z"/><path class="cls-3" d="M141,103.43l-6,1.9c.13-1.92.19-2.87.31-4.79a16.67,16.67,0,0,1,.92-4.56,4.76,4.76,0,0,1,1.69-2.6l.89-.51c.65-.38,1.17-.1,1.59.89a11.87,11.87,0,0,1,.63,4.35C141,100.24,141,101.3,141,103.43Zm-4.93-1.24,4-1.52c0-.81,0-1.22,0-2a5.28,5.28,0,0,0-.38-2.38c-.26-.49-.6-.62-1-.4l-.92.46a2.56,2.56,0,0,0-1.09,1.4,7.85,7.85,0,0,0-.53,2.59Z"/><circle class="cls-4" cx="87.62" cy="183.51" r="61.17"/><path class="cls-5" d="M47,233.48H40.13V219.31H26.21v14.17H19.37V199.36h6.84V214H40.13V199.36H47Z"/><path class="cls-5" d="M75.53,218.48H61.4v9.73H77.92v5.27H54.55V199.36H77.87v5.27H61.4v8.58H75.53Z"/><path class="cls-5" d="M90.16,228.21h15.19v5.27h-22V199.36h6.85Z"/><path class="cls-5" d="M117.33,228.21h15.18v5.27h-22V199.36h6.85Z"/><path class="cls-5" d="M163.71,219.49a14.33,14.33,0,0,1-4,10.39,13.75,13.75,0,0,1-10.32,4.1,13.55,13.55,0,0,1-10.24-4.1,14.39,14.39,0,0,1-3.94-10.39v-6.14A14.44,14.44,0,0,1,139.16,203a13.51,13.51,0,0,1,10.23-4.11A13.76,13.76,0,0,1,159.73,203a14.28,14.28,0,0,1,4,10.37Zm-6.84-6.17a10.35,10.35,0,0,0-2-6.55,6.57,6.57,0,0,0-5.49-2.56,6.39,6.39,0,0,0-5.41,2.55,10.62,10.62,0,0,0-1.92,6.56v6.2a10.66,10.66,0,0,0,1.94,6.62,6.41,6.41,0,0,0,5.42,2.56,6.51,6.51,0,0,0,5.48-2.56,10.55,10.55,0,0,0,2-6.62Z"/></g></g></svg>