<svg xmlns="http://www.w3.org/2000/svg" viewBox="0 0 180 244.76"><defs><style>.cls-1{fill:#f1cc26;}.cls-2{fill:#ed761b;}.cls-3{fill:#f5f7e1;}</style></defs><title>資產 38</title><g id="圖層_2" data-name="圖層 2"><g id="圖層_1-2" data-name="圖層 1"><rect class="cls-1" y="0.08" width="180" height="244.69"/><path class="cls-2" d="M47,233.48H40.13V219.31H26.21v14.17H19.37V199.36h6.84V214H40.13V199.36H47Z"/><path class="cls-2" d="M75.53,218.48H61.4v9.73H77.92v5.27H54.55V199.36H77.87v5.27H61.4v8.58H75.53Z"/><path class="cls-2" d="M90.16,228.21h15.19v5.27h-22V199.36h6.85Z"/><path class="cls-2" d="M117.33,228.21h15.18v5.27h-22V199.36h6.85Z"/><path class="cls-2" d="M163.71,219.49a14.33,14.33,0,0,1-4,10.39,13.75,13.75,0,0,1-10.32,4.1,13.55,13.55,0,0,1-10.24-4.1,14.39,14.39,0,0,1-3.94-10.39v-6.14A14.44,14.44,0,0,1,139.16,203a13.51,13.51,0,0,1,10.23-4.11A13.76,13.76,0,0,1,159.73,203a14.28,14.28,0,0,1,4,10.37Zm-6.84-6.17a10.35,10.35,0,0,0-2-6.55,6.57,6.57,0,0,0-5.49-2.56,6.39,6.39,0,0,0-5.41,2.55,10.62,10.62,0,0,0-1.92,6.56v6.2a10.66,10.66,0,0,0,1.94,6.62,6.42,6.42,0,0,0,5.42,2.56,6.51,6.51,0,0,0,5.48-2.56,10.55,10.55,0,0,0,2-6.62Z"/><polygon class="cls-3" points="180 129.75 0 185.29 0 53.2 138.4 0 180 129.75"/><path class="cls-2" d="M156,41.56l0,0,8.92-.77.72,2.4-13.11.81-.69-2.28,7.42-4.67v-.05l-8.77.17-.68-2.28,11.4-6.54.72,2.41-7.87,4.27v.05l9.09-.22.54,1.82Z"/><path class="cls-2" d="M162.05,57.51a5.37,5.37,0,0,1-4.16-.31,5.2,5.2,0,0,1-2.58-3.27,5.09,5.09,0,0,1,.37-4.12A5.4,5.4,0,0,1,159,47.28l2.21-.66a5.36,5.36,0,0,1,4.14.3,5,5,0,0,1,2.58,3.23,5.12,5.12,0,0,1-.37,4.15,5.33,5.33,0,0,1-3.29,2.55Zm1.48-3.12A3.89,3.89,0,0,0,165.67,53a2.47,2.47,0,0,0,.33-2.25,2.41,2.41,0,0,0-1.5-1.67,3.94,3.94,0,0,0-2.56,0l-2.23.66a4.07,4.07,0,0,0-2.17,1.41,2.41,2.41,0,0,0-.33,2.22,2.44,2.44,0,0,0,1.5,1.7,4,4,0,0,0,2.6,0Z"/><path class="cls-2" d="M163.49,62.79l-4.9,1.47-.73-2.46,12.26-3.67,1.38,4.62a5.32,5.32,0,0,1,0,3.57,3.43,3.43,0,0,1-2.32,2,2.85,2.85,0,0,1-1.78,0,3.72,3.72,0,0,1-1.54-1.13,2.68,2.68,0,0,1-.6,1.88,3.47,3.47,0,0,1-1.71,1l-.9.27a5.17,5.17,0,0,0-1,.46,1.54,1.54,0,0,0-.69.73l-.18,0L160,69.05a1.43,1.43,0,0,1,.77-.71,6.81,6.81,0,0,1,1.16-.46l.87-.26a2,2,0,0,0,1.28-.93,1.93,1.93,0,0,0,.08-1.56Zm1.9-.57.63,2.12a2.5,2.5,0,0,0,.9,1.42,1.71,1.71,0,0,0,1.45.12,1.88,1.88,0,0,0,1.19-.91,2.19,2.19,0,0,0,.05-1.65L169,61.15Z"/><path class="cls-2" d="M161.53,74.06l12.26-3.67,1.26,4.21a5.27,5.27,0,0,1-.33,4.14,5.16,5.16,0,0,1-3.25,2.55l-2,.61a5.18,5.18,0,0,1-4.12-.35,5.31,5.31,0,0,1-2.53-3.28Zm11.1-.64L164.16,76l.48,1.63a2.67,2.67,0,0,0,1.52,1.8,3.63,3.63,0,0,0,2.55.05l2-.61a3.58,3.58,0,0,0,2.09-1.44,2.64,2.64,0,0,0,.27-2.34Z"/></g></g></svg>