<svg xmlns="http://www.w3.org/2000/svg" xmlns:xlink="http://www.w3.org/1999/xlink" viewBox="0 0 1134.73 245.63"><defs><style>.cls-1{fill:none;}.cls-2{fill:#f1cc26;}.cls-3{fill:#ed761b;}.cls-4{fill:#f5f7e1;}.cls-5{fill:#080606;}.cls-6{fill:#d64632;}.cls-7{fill:#dde1d4;}.cls-8{fill:#253771;}.cls-9{isolation:isolate;}.cls-10{clip-path:url(#clip-path);}.cls-11{clip-path:url(#clip-path-2);}.cls-12{clip-path:url(#clip-path-3);}.cls-13{clip-path:url(#clip-path-4);}.cls-14{clip-path:url(#clip-path-5);}.cls-15{clip-path:url(#clip-path-6);}.cls-16{clip-path:url(#clip-path-7);}.cls-17{clip-path:url(#clip-path-8);}.cls-18{fill:#e0780d;}.cls-19{fill:#dcdcdc;}.cls-20{fill:#3697d4;}.cls-21{fill:#3596d4;}.cls-22{fill:#ee761c;}.cls-23{fill:#ddd;}.cls-24{clip-path:url(#clip-path-9);}.cls-25{clip-path:url(#clip-path-10);}</style><clipPath id="clip-path"><path class="cls-1" d="M985.81,144.69a61.9,61.9,0,0,1-2.74-9.67c-.23-1.44-.64-3.35-.75-4.81s-.31-3.41-.36-4.87a47.42,47.42,0,0,1,0-4.77c.12-1.45.18-3.38.41-4.81a93,93,0,0,1,1.88-9.22c.4-1.38,1-3.21,1.5-4.56s1.25-3,1.79-4.3,1.53-3.05,2.21-4.34A39.6,39.6,0,0,1,992.49,89c1.59-2.2,3.84-5,5.61-7.09a63,63,0,0,1,7.21-6.67c1.13-.87,2.69-2,4.6-3.25a63.67,63.67,0,0,1,6.08-3.47,60.44,60.44,0,0,1,6.23-2.66h0c.78-.26,1.56-.55,2.35-.8,1.51-.48,2.44-.72,3.8-1.07,22.31-5.55,47.11,10.76,57.8,39.39,11.77,31.49,2,66-21.8,77,23.81-11,33.57-45.48,21.8-77-10.69-28.63-35.49-44.94-57.8-39.39a61,61,0,0,1,17.4-1.74,60.86,60.86,0,0,1,18.12,3.61,61.64,61.64,0,0,1,8.58,3.87,60.23,60.23,0,0,1,7.91,5.17,58.92,58.92,0,0,1,7.06,6.37c1,1,2.27,2.5,3.19,3.63s2,2.7,2.87,3.86a64.55,64.55,0,0,1,4.89,8.56,53.59,53.59,0,0,1,2.81,7.11,77.05,77.05,0,0,1,2.3,9.6,59.68,59.68,0,0,1,.71,9.65,62.15,62.15,0,0,1-1.76,14.21c-.39,1.35-.86,3.17-1.3,4.5s-1.12,3.18-1.68,4.51a59.06,59.06,0,0,1-4.35,8.49c-.72,1.18-1.74,2.72-2.56,3.84s-2.22,2.86-3.21,4.06a53.48,53.48,0,0,1-4.73,4.91,60.8,60.8,0,0,1-6.25,5.06,64.78,64.78,0,0,1-8.33,4.94,63.05,63.05,0,0,1-6.12,2.61l-.87.3-1,.32c-.52.17-1.75.58-3.39,1-2.26.6-3.79.88-5.28,1.15a60.35,60.35,0,0,1-8.26.86,65.23,65.23,0,0,1-8-.26,47.16,47.16,0,0,1-5-.7c-1.4-.31-3.27-.68-4.65-1s-3.12-.85-4.42-1.35c-5.73-2.23-5.73-2.23-8.63-3.76a59.58,59.58,0,0,1-8-5,62.08,62.08,0,0,1-7.15-6.27,60.72,60.72,0,0,1-6.16-7.39,40.75,40.75,0,0,1-3.1-4.89C988.63,151.05,986.91,147.46,985.81,144.69Z"/></clipPath><clipPath id="clip-path-2"><path class="cls-1" d="M1057.76,182.63c-2.68.64-3.66.8-6,1.18-1.29.2-3,.35-4.31.47a62.59,62.59,0,0,1-8.44,0,46.06,46.06,0,0,1-6.31-.76,60.35,60.35,0,0,1-9.41-2.41c-1.37-.51-3.2-1.19-4.54-1.77s-3-1.36-4.2-2a60.94,60.94,0,0,1-21.37-18.73,55.55,55.55,0,0,1-5-8.46,40.59,40.59,0,0,1-2.35-5.47,84.06,84.06,0,0,1-2.72-9.57A58.77,58.77,0,0,1,982,125.4a77.25,77.25,0,0,1,.41-9.5,61.45,61.45,0,0,1,5.14-18.11A61.29,61.29,0,0,1,998.1,81.86c.84-.89,1.95-2.1,2.86-2.92s2.11-1.92,3-2.7,1.93-1.57,2.8-2.18c1.41-1,2.87-2,4.69-3.11a63.86,63.86,0,0,1,5.85-3.13c1.62-.76,3.72-1.6,4.88-2l2.35-.8c1.25-.39,2.53-.76,3.8-1.07a36.56,36.56,0,0,0-6.6,2.33,36.56,36.56,0,0,1,6.6-2.33h0a18.77,18.77,0,0,0,2-.46,61.6,61.6,0,0,1,13.78-1.34,50,50,0,0,1,5.74.38c1.34.19,3.14.41,4.47.67,1.5.29,3.48.71,4.93,1.14,2.67.78,6.14,2.08,8.72,3.13,1.36.55,3.07,1.51,4.38,2.17a45.23,45.23,0,0,1,4.12,2.46c1.18.76,2.69,1.89,3.83,2.71a57.69,57.69,0,0,1,7.09,6.37,58.69,58.69,0,0,1,6.07,7.5,59.5,59.5,0,0,1,4.9,8.55,62.07,62.07,0,0,1,3.53,9.43,60.45,60.45,0,0,1,2.15,12.14,62.08,62.08,0,0,1,0,9.6,55.67,55.67,0,0,1-1.53,9.36c-.39,1.38-.82,3.25-1.32,4.59-1,2.63-2.39,6.07-3.57,8.61a59.13,59.13,0,0,1-5,8.23,60.4,60.4,0,0,1-6.24,7.33,68.2,68.2,0,0,1-5.7,5,61.25,61.25,0,0,1-7.51,5,59,59,0,0,1-7.51,3.6A61.35,61.35,0,0,1,1057.76,182.63Z"/></clipPath><clipPath id="clip-path-3"><path class="cls-1" d="M292.46,170.28a51,51,0,0,1-7.82,2.95c-1.39.39-3.27.79-4.68,1.06-1,.18-2.35.31-3.36.44a43.41,43.41,0,0,1-4.84.18c-1,0-2.27-.14-3.24-.2a43.9,43.9,0,0,1-4.82-.76A28,28,0,0,1,259,172.6c-1.35-.54-3.16-1.27-4.48-1.89-.87-.4-2-1-2.8-1.52a42.55,42.55,0,0,1-9.71-8c-.66-.75-1.52-1.77-2.12-2.57-.81-1.08-1.84-2.57-2.57-3.71a62.46,62.46,0,0,1-3.24-6.24c-.51-1.1-1.05-2.64-1.45-3.79s-.75-2.55-1.08-3.64a34.68,34.68,0,0,1-.92-4.28c-.35-2.38-.76-5.58-.85-8a63,63,0,0,1,.26-8.35,65.54,65.54,0,0,1,1.33-8.15,69,69,0,0,1,2.3-7.87,66.52,66.52,0,0,1,3.23-7.55A67.44,67.44,0,0,1,241,89.93a63.68,63.68,0,0,1,10.59-12.32,56.74,56.74,0,0,1,6.57-5.08,53.73,53.73,0,0,1,7.4-4.12c1.31-.64,3.13-1.31,4.5-1.8,1-.37,2.42-.74,3.46-1a45.31,45.31,0,0,1,4.77-1,32,32,0,0,1,5-.46c1,0,2.29,0,3.28,0a40.85,40.85,0,0,1,4.27.41A47.08,47.08,0,0,1,297,66c.9.3,2.11.69,3,1.07,1.35.57,3.13,1.38,4.41,2.09a33,33,0,0,1,4,2.53c.76.59,1.8,1.33,2.53,2a42,42,0,0,1,3.38,3.16c.67.72,1.56,1.68,2.18,2.45.84,1,1.91,2.49,2.67,3.6a52.65,52.65,0,0,1,3.37,6c.59,1.22,1.26,2.91,1.73,4.18.39,1,.8,2.45,1.13,3.5.52,1.66.93,4,1.29,5.66a3.23,3.23,0,0,0-.33-.93,4,4,0,0,0-.67-.86,5.48,5.48,0,0,0-1-.77,8.37,8.37,0,0,0-1.34-.68,17.77,17.77,0,0,0-4.9-1.11,32.86,32.86,0,0,0-5.95,0,39.87,39.87,0,0,0-6.27,1.06,32.49,32.49,0,0,0-5.87,2,35.4,35.4,0,0,0-2.2-7.64A30.07,30.07,0,0,0,294.67,87,26.23,26.23,0,0,0,290,82a24.12,24.12,0,0,0-5.67-3.35,23.59,23.59,0,0,0-5-1.47,25.47,25.47,0,0,0-5.34-.37,28.19,28.19,0,0,0-5.58.79,32.76,32.76,0,0,0-5.74,2,39.74,39.74,0,0,0-11.83,8.48,49.18,49.18,0,0,0-8.71,12.35A51.45,51.45,0,0,0,237.36,115a44.3,44.3,0,0,0,.07,15.11,36.32,36.32,0,0,0,2.22,7.51,29.84,29.84,0,0,0,3.54,6.22,25.87,25.87,0,0,0,4.64,4.81,24.05,24.05,0,0,0,5.54,3.31,23.54,23.54,0,0,0,5.11,1.53,24.63,24.63,0,0,0,5.46.37,27.27,27.27,0,0,0,5.7-.84,31.59,31.59,0,0,0,5.84-2.1,39.93,39.93,0,0,0,11.68-8.5,49.12,49.12,0,0,0,8.57-12.22,51.41,51.41,0,0,0,4.69-14.37,44.14,44.14,0,0,0,0-15,32.49,32.49,0,0,1,5.87-2,39.87,39.87,0,0,1,6.27-1.06,32.86,32.86,0,0,1,5.95,0,17.77,17.77,0,0,1,4.9,1.11,8.37,8.37,0,0,1,1.34.68,5.48,5.48,0,0,1,1,.77,4,4,0,0,1,.67.86,3.23,3.23,0,0,1,.33.93,56,56,0,0,1,.83,8.59c0,2.39-.14,5.58-.32,8-.09,1.23-.36,2.85-.55,4.07a72.57,72.57,0,0,1-1.82,7.84c-.37,1.14-.84,2.68-1.25,3.82s-1,2.61-1.47,3.74-1.15,2.58-1.7,3.66c-1.08,2.14-2.72,4.89-4,6.94-.64,1-1.63,2.33-2.33,3.33a66.32,66.32,0,0,1-5.25,6.19c-.92.93-2.14,2.19-3.14,3-1.77,1.5-4.21,3.42-6.08,4.78-1.11.8-2.68,1.72-3.86,2.4C294.85,169.09,293.49,169.78,292.46,170.28Z"/></clipPath><clipPath id="clip-path-4"><path class="cls-1" d="M287.8,98.2a7.59,7.59,0,0,0,4.36.38,11.85,11.85,0,0,0,4.54-2,19.18,19.18,0,0,0,4.18-4,24.78,24.78,0,0,0,3.28-5.72,24.06,24.06,0,0,1,5.68,3.37,26.1,26.1,0,0,1,4.73,4.93,29.81,29.81,0,0,1,3.56,6.36,36.25,36.25,0,0,1,2.19,7.67,33.36,33.36,0,0,1-5.9,2.07,40.49,40.49,0,0,1-6.32,1.06,32.22,32.22,0,0,1-6,0,17.24,17.24,0,0,1-4.9-1.12,21.19,21.19,0,0,0-1.29-4.45,17.48,17.48,0,0,0-2.08-3.68,14.91,14.91,0,0,0-2.75-2.85A14.29,14.29,0,0,0,287.8,98.2Z"/></clipPath><clipPath id="clip-path-5"><path class="cls-1" d="M273.05,160.59a24.8,24.8,0,0,0,1.81-6.34,19.19,19.19,0,0,0,0-5.82,12.1,12.1,0,0,0-1.72-4.66,7.48,7.48,0,0,0-3.33-2.86,14.38,14.38,0,0,0,6.14,1.12,16.12,16.12,0,0,0,3.32-.48,18.84,18.84,0,0,0,3.4-1.23,23.14,23.14,0,0,0,6.82-4.95,28.82,28.82,0,0,0,5-7.14,29.7,29.7,0,0,0,2.74-8.39,26,26,0,0,0,0-8.72,17.24,17.24,0,0,0,4.9,1.12,32.22,32.22,0,0,0,6,0,40.49,40.49,0,0,0,6.32-1.06,33.36,33.36,0,0,0,5.9-2.07,44.68,44.68,0,0,1,0,15,52,52,0,0,1-4.72,14.46A50.08,50.08,0,0,1,307,150.94a40.3,40.3,0,0,1-11.73,8.56,32.11,32.11,0,0,1-5.85,2.13,27,27,0,0,1-5.73.85,24.76,24.76,0,0,1-5.47-.36A23.79,23.79,0,0,1,273.05,160.59Z"/></clipPath><clipPath id="clip-path-6"><path class="cls-1" d="M269.79,140.91a14.45,14.45,0,0,1-3.21-1.94,15.63,15.63,0,0,1-2.69-2.81,17.87,17.87,0,0,1-2-3.62,21.4,21.4,0,0,1-1.28-4.37,25.88,25.88,0,0,1,0-8.78,30.19,30.19,0,0,1,2.76-8.46,28.51,28.51,0,0,1,5.05-7.18,23.14,23.14,0,0,1,6.87-4.94,17.86,17.86,0,0,1,3.32-1.18,15.55,15.55,0,0,1,3.25-.47,14.11,14.11,0,0,1,6,1,7.38,7.38,0,0,0-2.23-.52,10,10,0,0,0-2.59.17,16.26,16.26,0,0,0-4.91,1.91,20.38,20.38,0,0,0-2.71,1.84A26.06,26.06,0,0,0,272.7,104a28.57,28.57,0,0,0-2.5,2.94,29.78,29.78,0,0,0-2.21,3.38,14.52,14.52,0,0,0-1,1.82c-.25.57-.61,1.32-.88,1.89s-.53,1.36-.76,1.94-.45,1.39-.65,2a20.36,20.36,0,0,0-.53,2c-.23,1.17-.51,2.75-.65,3.93a29.8,29.8,0,0,0,0,5.77,20.32,20.32,0,0,0,1.51,5.95,13,13,0,0,0,1.82,3,8.32,8.32,0,0,0,1.22,1.21A7.47,7.47,0,0,0,269.79,140.91Z"/></clipPath><clipPath id="clip-path-7"><path class="cls-1" d="M263.79,131.37a17.22,17.22,0,0,0,2.23,6.09,8.37,8.37,0,0,0,3.77,3.45,7.48,7.48,0,0,1,3.33,2.86,12.1,12.1,0,0,1,1.72,4.66,19.19,19.19,0,0,1,0,5.82,24.8,24.8,0,0,1-1.81,6.34,23.6,23.6,0,0,1-5.55-3.32,25.8,25.8,0,0,1-4.65-4.84,30.17,30.17,0,0,1-3.53-6.24,36.43,36.43,0,0,1-2.22-7.56,44.77,44.77,0,0,1,0-15.19,51.88,51.88,0,0,1,4.77-14.65,50,50,0,0,1,8.75-12.44,40,40,0,0,1,11.89-8.55,32.22,32.22,0,0,1,5.75-2,28.42,28.42,0,0,1,5.6-.8,25.57,25.57,0,0,1,5.35.36,24.1,24.1,0,0,1,5,1.47,24.78,24.78,0,0,1-3.28,5.72,19.18,19.18,0,0,1-4.18,4,11.85,11.85,0,0,1-4.54,2,7.59,7.59,0,0,1-4.36-.38,6.86,6.86,0,0,0-1.59-.44,8.27,8.27,0,0,0-2-.07A13.54,13.54,0,0,0,279.57,99a19.55,19.55,0,0,0-2.74,1.55,26.9,26.9,0,0,0-6.6,6.38c-.35.49-.85,1.14-1.17,1.66-.64,1.05-1.46,2.48-2,3.56-.3.56-.64,1.33-.89,1.91a17,17,0,0,0-.76,1.94c-.16.6-.47,1.38-.64,2s-.39,1.4-.53,2a35.17,35.17,0,0,0-.65,3.94A26.36,26.36,0,0,0,263.79,131.37Z"/></clipPath><clipPath id="clip-path-8"><path class="cls-1" d="M326.76,102.16c.32,2.36.73,5.51.81,7.89a63.43,63.43,0,0,1-.27,8.44,67.24,67.24,0,0,1-3.65,16,69.68,69.68,0,0,1-3.16,7.38c-.56,1.06-1.29,2.49-1.88,3.53s-1.46,2.38-2.09,3.41-1.6,2.29-2.29,3.27a61.49,61.49,0,0,1-5.14,6.1c-.82.85-1.94,2-2.8,2.75s-2.17,1.87-3.11,2.66a55,55,0,0,1-6.68,4.6c-1,.57-2.34,1.31-3.37,1.81-1.2.58-2.83,1.27-4.06,1.78-1,.42-2.38.88-3.42,1.19-1.3.38-3,.79-4.37,1.11a32,32,0,0,1-4.68.69,49.12,49.12,0,0,1-6.53.11c-1.42-.11-3.31-.34-4.71-.56-.95-.15-2.19-.44-3.11-.68a42.74,42.74,0,0,1-6.22-2.17c-.87-.4-2-.93-2.86-1.4a47.59,47.59,0,0,1-4.14-2.57,42.83,42.83,0,0,1-6.09-5.25c-.69-.71-1.58-1.7-2.2-2.48-.89-1.12-2-2.66-2.82-3.85-.59-.86-1.3-2-1.8-3-.66-1.25-1.5-2.94-2.07-4.24a61.15,61.15,0,0,1-2.44-7.09,56.29,56.29,0,0,1-1.52-8.12,57.07,57.07,0,0,1-.35-8.54,62.44,62.44,0,0,1,.8-8.34,63.29,63.29,0,0,1,1.83-8.06,67.81,67.81,0,0,1,16.16-28c.85-.84,2-2,2.87-2.76s2.2-1.91,3.18-2.68a55.22,55.22,0,0,1,6.83-4.58c1-.56,2.37-1.29,3.42-1.78,1.23-.57,2.89-1.28,4.16-1.75a44.85,44.85,0,0,1,7.91-2.18,42.5,42.5,0,0,1,8.05-.72,39.16,39.16,0,0,1,8,.82c1.86.44,4.31,1.13,6.12,1.75,1.19.41,2.71,1.14,3.86,1.67a39.44,39.44,0,0,1,4.23,2.42c.81.51,1.83,1.27,2.6,1.85a41,41,0,0,1,5.88,5.52,42.55,42.55,0,0,1,4.78,6.58,49.05,49.05,0,0,1,3.6,7.43c.47,1.3,1.09,3,1.45,4.37.46,1.68,1,4,1.29,5.66a3.35,3.35,0,0,1-.2,1.72,6,6,0,0,1-1.16,1.79,12.3,12.3,0,0,1-2.08,1.77,20.7,20.7,0,0,1-3,1.68,36.25,36.25,0,0,0-2.19-7.67,29.81,29.81,0,0,0-3.56-6.36,26.1,26.1,0,0,0-4.73-4.93,23.77,23.77,0,0,0-10.67-4.84,25.57,25.57,0,0,0-5.35-.36,28.42,28.42,0,0,0-5.6.8,32.22,32.22,0,0,0-5.75,2,40,40,0,0,0-11.89,8.55,50,50,0,0,0-8.75,12.44,51.88,51.88,0,0,0-4.77,14.65,44.77,44.77,0,0,0,0,15.19,36.43,36.43,0,0,0,2.22,7.56,30.17,30.17,0,0,0,3.53,6.24,25.8,25.8,0,0,0,4.65,4.84,23.81,23.81,0,0,0,10.67,4.85,24.76,24.76,0,0,0,5.47.36,27,27,0,0,0,5.73-.85,32.11,32.11,0,0,0,5.85-2.13A40.3,40.3,0,0,0,307,150.94a50.08,50.08,0,0,0,8.61-12.32,52,52,0,0,0,4.72-14.46,44.68,44.68,0,0,0,0-15,20.7,20.7,0,0,0,3-1.68,12.3,12.3,0,0,0,2.08-1.77,6,6,0,0,0,1.16-1.79A3.35,3.35,0,0,0,326.76,102.16Z"/></clipPath><clipPath id="clip-path-9"><path class="cls-1" d="M31.37,144.68A63.32,63.32,0,0,1,28.63,135c-.23-1.45-.64-3.36-.75-4.82s-.3-3.36-.35-4.8-.09-3.39,0-4.84.18-3.38.41-4.8a88.08,88.08,0,0,1,1.88-9.22c.4-1.38,1-3.21,1.5-4.56s1.25-3,1.79-4.3,1.53-3,2.21-4.34A39.52,39.52,0,0,1,38,89c1.6-2.2,3.85-5,5.62-7.09a61.54,61.54,0,0,1,7.21-6.67c1.13-.87,2.69-2,4.59-3.25a63.89,63.89,0,0,1,6.08-3.46,60.73,60.73,0,0,1,12.39-4.54c22.31-5.55,47.11,10.76,57.8,39.38,11.76,31.49,2,66-21.8,77,23.8-11,33.56-45.49,21.8-77C121,74.7,96.23,58.39,73.92,63.94a60.47,60.47,0,0,1,35.54,1.92A60.41,60.41,0,0,1,133,81.21c1,1.06,2.27,2.51,3.18,3.63s2,2.7,2.88,3.87A63.24,63.24,0,0,1,144,97.26a51.93,51.93,0,0,1,2.82,7.12,75.14,75.14,0,0,1,2.29,9.59,60.16,60.16,0,0,1,.72,9.66A61.47,61.47,0,0,1,148,137.86c-.39,1.35-.85,3.17-1.29,4.5s-1.11,3.16-1.71,4.5a60.12,60.12,0,0,1-4.35,8.49c-.73,1.18-1.75,2.72-2.57,3.84s-2.22,2.86-3.2,4.06a51.1,51.1,0,0,1-4.74,4.91,58.2,58.2,0,0,1-6.24,5.06,65.32,65.32,0,0,1-8.34,4.94,61.12,61.12,0,0,1-6.12,2.61h0l-1.33.46c-.51.18-1,.35-1.58.51a61.34,61.34,0,0,1-15.79,2.66,64.75,64.75,0,0,1-8-.26,46.61,46.61,0,0,1-5-.7c-1.39-.31-3.26-.68-4.64-1a45.13,45.13,0,0,1-4.42-1.36c-5.8-2.22-5.8-2.22-8.68-3.8A58.77,58.77,0,0,1,44.86,166a59.69,59.69,0,0,1-6.16-7.4,40.82,40.82,0,0,1-3.11-4.89C34.2,151,32.47,147.45,31.37,144.68Z"/></clipPath><clipPath id="clip-path-10"><path class="cls-1" d="M103.33,182.63c-2.68.64-3.65.8-6,1.18-1.29.2-3,.35-4.31.47a62.56,62.56,0,0,1-8.44,0,48,48,0,0,1-6.32-.76,59.77,59.77,0,0,1-9.4-2.42c-1.37-.51-3.2-1.18-4.54-1.76s-3-1.36-4.2-2a58.92,58.92,0,0,1-8-5.06,60.93,60.93,0,0,1-13.34-13.67,56,56,0,0,1-5-8.45,42,42,0,0,1-2.35-5.48,89.86,89.86,0,0,1-2.72-9.56,59.8,59.8,0,0,1-1.12-9.72,77.34,77.34,0,0,1,.41-9.5,59.85,59.85,0,0,1,1.88-9.28,59.18,59.18,0,0,1,3.26-8.83A60.74,60.74,0,0,1,43.67,81.86c.84-.89,1.95-2.1,2.86-2.91s2.1-1.93,3-2.71,1.93-1.57,2.8-2.18c1.41-1,2.87-2,4.69-3.11,1.41-.83,3.16-1.86,5.85-3.13,1.62-.76,3.72-1.6,4.88-2s1.53-.54,2.35-.8c1.25-.39,2.53-.76,3.8-1.07a37.59,37.59,0,0,0-6.61,2.33A37.59,37.59,0,0,1,73.9,64c1.21-.28,2.83-.65,4-.86s3.07-.47,4.39-.62a61.56,61.56,0,0,1,7.31-.32c1.72.09,4,.2,5.73.38,1.36.13,3.15.42,4.48.67a59.15,59.15,0,0,1,9.34,2.54c1.37.52,3.18,1.22,4.51,1.82s3,1.4,4.18,2.07a60.2,60.2,0,0,1,8,5.18A57.36,57.36,0,0,1,133,81.17a55.3,55.3,0,0,1,6.07,7.5A59.66,59.66,0,0,1,144,97.21a62.31,62.31,0,0,1,3.53,9.44,51.11,51.11,0,0,1,1.6,7.32c.39,2.86.64,6.72.72,9.61A62.1,62.1,0,0,1,148,137.75c-.38,1.35-.85,3.17-1.28,4.51s-1.11,3.14-1.66,4.46a57.87,57.87,0,0,1-4.26,8.38,46.54,46.54,0,0,1-2.71,4.08c-1.64,2.11-3.92,4.86-5.74,6.83a43.82,43.82,0,0,1-3.28,3.11c-1.39,1.2-3.3,2.74-4.79,3.82a63.53,63.53,0,0,1-10,5.81c-2.53,1.17-4.51,1.88-4.88,2-1.3.46-1.53.54-2.34.8C105.05,182.22,103.4,182.62,103.33,182.63Z"/></clipPath></defs><title>資產 40</title><g id="圖層_2" data-name="圖層 2"><g id="圖層_1-2" data-name="圖層 1"><rect class="cls-2" x="572.84" y="0.08" width="180" height="244.69"/><path class="cls-3" d="M619.79,233.48H613V219.31H599.05v14.17h-6.84V199.36h6.84V214H613V199.36h6.82Z"/><path class="cls-3" d="M648.37,218.48H634.23v9.73h16.53v5.27H627.39V199.36h23.32v5.27H634.23v8.58h14.14Z"/><path class="cls-3" d="M663,228.21h15.18v5.27h-22V199.36H663Z"/><path class="cls-3" d="M690.16,228.21h15.19v5.27h-22V199.36h6.84Z"/><path class="cls-3" d="M736.55,219.49a14.33,14.33,0,0,1-4,10.39,13.75,13.75,0,0,1-10.32,4.1,13.59,13.59,0,0,1-10.25-4.1,14.42,14.42,0,0,1-3.93-10.39v-6.14A14.4,14.4,0,0,1,712,203a13.51,13.51,0,0,1,10.23-4.11A13.76,13.76,0,0,1,732.57,203a14.32,14.32,0,0,1,4,10.37Zm-6.84-6.17a10.41,10.41,0,0,0-2-6.55,6.57,6.57,0,0,0-5.49-2.56,6.37,6.37,0,0,0-5.41,2.55,10.62,10.62,0,0,0-1.92,6.56v6.2a10.6,10.6,0,0,0,1.94,6.62,6.41,6.41,0,0,0,5.42,2.56,6.51,6.51,0,0,0,5.48-2.56,10.55,10.55,0,0,0,2-6.62Z"/><polygon class="cls-4" points="752.84 129.75 572.84 185.29 572.84 53.2 711.24 0 752.84 129.75"/><path class="cls-3" d="M728.84,41.56v0l8.93-.77.72,2.4-13.12.81-.68-2.28,7.42-4.67,0-.05-8.76.17-.68-2.28,11.4-6.54.72,2.41-7.87,4.27v.05l9.09-.22.54,1.82Z"/><path class="cls-3" d="M734.89,57.51a5.36,5.36,0,0,1-4.16-.31,5.61,5.61,0,0,1-2.21-7.39,5.37,5.37,0,0,1,3.31-2.53l2.2-.66a5.39,5.39,0,0,1,4.15.3,5,5,0,0,1,2.58,3.23,5.16,5.16,0,0,1-.37,4.15,5.37,5.37,0,0,1-3.3,2.55Zm1.48-3.12A3.93,3.93,0,0,0,738.51,53a2.47,2.47,0,0,0,.33-2.25,2.41,2.41,0,0,0-1.5-1.67,3.94,3.94,0,0,0-2.56,0l-2.23.66a4,4,0,0,0-2.17,1.41,2.41,2.41,0,0,0-.34,2.22,2.45,2.45,0,0,0,1.51,1.7,4,4,0,0,0,2.59,0Z"/><path class="cls-3" d="M736.33,62.79l-4.9,1.47-.74-2.46L743,58.13l1.39,4.62a5.31,5.31,0,0,1,0,3.57,3.39,3.39,0,0,1-2.31,2,2.84,2.84,0,0,1-1.78,0,3.65,3.65,0,0,1-1.54-1.13,2.77,2.77,0,0,1-.6,1.88,3.56,3.56,0,0,1-1.71,1l-.9.27a5.17,5.17,0,0,0-1,.46,1.54,1.54,0,0,0-.69.73l-.18,0-.76-2.53a1.46,1.46,0,0,1,.77-.71,6.9,6.9,0,0,1,1.17-.46l.87-.26a2,2,0,0,0,1.27-.93,2,2,0,0,0,.09-1.56Zm1.9-.57.63,2.12a2.5,2.5,0,0,0,.9,1.42,1.7,1.7,0,0,0,1.45.12A1.88,1.88,0,0,0,742.4,65a2.15,2.15,0,0,0,0-1.65l-.64-2.17Z"/><path class="cls-3" d="M734.36,74.06l12.26-3.67,1.26,4.21a5.32,5.32,0,0,1-.32,4.14,5.16,5.16,0,0,1-3.25,2.55l-2,.61a5.18,5.18,0,0,1-4.12-.35,5.33,5.33,0,0,1-2.54-3.28Zm11.11-.64L737,76l.49,1.63a2.66,2.66,0,0,0,1.51,1.8,3.66,3.66,0,0,0,2.56.05l2-.61a3.58,3.58,0,0,0,2.09-1.44A2.67,2.67,0,0,0,746,75Z"/><rect class="cls-5" x="381.89" y="0.9" width="180" height="244.69"/><circle class="cls-6" cx="471.89" cy="123.25" r="40.16"/><path class="cls-7" d="M450.62,122.67l-3,0a51,51,0,0,1,1.3-12.12c-2.24.43-3.32.68-5.37,1.21a33.15,33.15,0,0,0-1.65,11l-2.65,0c.15-10.43,2.52-15.4,9.3-22.33.68-.66,1-1,1.76-1.59a30.86,30.86,0,0,0-5.44,9.18c1.95-.72,3-1,5.09-1.65A41.86,41.86,0,0,1,454.28,96c.81-.5,1.23-.74,2.08-1.18A66.71,66.71,0,0,0,450.62,122.67Z"/><path class="cls-7" d="M464.37,107.9c-2.6.16-3.87.27-6.35.57-.41,3.49-.56,5.31-.72,9,3.05-.13,4.63-.18,7.85-.24,0,2.11,0,3.18-.06,5.34l-11.07,0a84,84,0,0,1,4.76-29,28.13,28.13,0,0,1,8.05-2.27c-.2,1.62-.29,2.46-.46,4.2A38,38,0,0,0,460,96.79c-.63,2.68-.91,4.1-1.37,7,2.36-.39,3.57-.54,6-.76C464.56,105,464.49,105.92,464.37,107.9Z"/><path class="cls-7" d="M471.2,117.21c3,0,4.57,0,7.52.06,0,2.11.06,3.18.06,5.34-4.32,0-6.63,0-11,0,.13-10.5.28-21,1.06-31.45,1-.09,1.52-.12,2.55-.13C471.26,100,471.22,105.56,471.2,117.21Z"/><path class="cls-7" d="M484.46,117.43c2.85.1,4.24.17,6.94.33.12,1.93.15,2.91.16,4.9l-10.28,0c-.3-10.38-.64-20.63-2.44-30.88,1,.21,1.46.33,2.4.6C483.29,100.89,484,106.21,484.46,117.43Z"/><path class="cls-7" d="M502.71,112.59a10.16,10.16,0,0,1,.12,7.34c-.83,2-2.24,3.21-4,3.21s-3.17-1.22-4.44-3.72a33.27,33.27,0,0,1-2.7-9.26c-.35-2.09-.56-3.11-1.05-5.09a31.39,31.39,0,0,1-1.15-7.3c0-1.5.5-1.68,1.68-.81a36.52,36.52,0,0,1,4.63,4.54,32,32,0,0,1,5.17,7A26.3,26.3,0,0,1,502.71,112.59Zm-4-5a20.51,20.51,0,0,0-2.81-4.65,10,10,0,0,0-2.65-2.61c-.73-.4-1-.15-.95.86a24.3,24.3,0,0,0,1,4.6,50,50,0,0,1,1.23,4.93,25.61,25.61,0,0,0,1.67,5.65c.71,1.5,1.52,2.28,2.46,2.36s1.64-.58,1.95-1.85a9.49,9.49,0,0,0-.35-4.89A31.89,31.89,0,0,0,498.66,107.54Z"/><path class="cls-7" d="M454.69,144.25l.06,0c-1.22-7.18-1.29-11.44-.45-20.43l3.08,0c-.6,9.68-1.39,19.35,1.19,28.86-.83-.35-1.24-.55-2-.95A78.64,78.64,0,0,1,449,133.88H449c.24,7.36,1,10.65,3.79,15.61-.73-.51-1.09-.77-1.78-1.33-6.79-8.45-9.87-13.87-11.24-24.42l2.61,0c.87,7.64,2.28,11.46,5.78,18.24l.06,0c-1.95-6.14-2.15-10-1.14-18.22h2.16C450.38,132.33,451.73,136.6,454.69,144.25Z"/><path class="cls-7" d="M473.17,143.59a21.9,21.9,0,0,1-1.75,9c-1,2.22-2.23,3.19-3.76,3s-2.87-1.48-4.23-3.84a23.71,23.71,0,0,1-2.91-8.91c-.28-2.15-.41-3.25-.61-5.51a19.65,19.65,0,0,1,1.28-9.83c1.19-2.69,2.86-4.11,4.94-4.11s3.82,1.43,5.16,4.23a23.17,23.17,0,0,1,1.95,10.25C473.21,140.21,473.2,141.36,473.17,143.59ZM470,137.82a18.39,18.39,0,0,0-1.05-6.41c-.67-1.71-1.59-2.58-2.73-2.6s-2,.83-2.57,2.47a16.51,16.51,0,0,0-.6,6.26c.16,2.32.25,3.46.46,5.66a17.94,17.94,0,0,0,1.42,5.82c.69,1.5,1.47,2.28,2.38,2.37s1.61-.55,2.1-2a17.11,17.11,0,0,0,.69-5.8C470,141.36,470,140.19,470,137.82Z"/><path class="cls-7" d="M479.13,143.6c-.4,4.87-.66,7.17-1.27,11.34-1,.18-1.48.25-2.49.35.89-10.46,1.06-20.92,1.21-31.4l6.28,0a4.71,4.71,0,0,1,4.27,2.57,11.69,11.69,0,0,1,1.1,6.91,12.67,12.67,0,0,1-1.07,4.17,9.24,9.24,0,0,1-2.11,3,2.73,2.73,0,0,1,1.42,2.27,11.25,11.25,0,0,1-.37,4.1c-.19.8-.29,1.19-.5,2s-.36,1.47-.51,2.2a3.67,3.67,0,0,0-.1,1.51c-.05.14-.07.21-.12.34-.93.39-1.4.57-2.35.89a4,4,0,0,1,.06-1.74c.15-.87.3-1.73.48-2.56s.24-1.16.39-1.94a6.59,6.59,0,0,0,0-3.22,1.31,1.31,0,0,0-1.5-1C480.84,143.44,480.27,143.5,479.13,143.6Zm.35-4.81c1.08-.07,1.62-.11,2.68-.21a2.58,2.58,0,0,0,2-1.29,7.52,7.52,0,0,0,.92-3.4,7.14,7.14,0,0,0-.44-3.5,1.92,1.92,0,0,0-1.91-1.27l-2.89.07C479.79,133.15,479.71,135.08,479.48,138.79Z"/><path class="cls-7" d="M486.7,152a71.37,71.37,0,0,0,5.45-28.21l5.07,0c1.76,0,3.18,1.14,4.06,3.19a10.48,10.48,0,0,1,0,7.49,29.85,29.85,0,0,1-1.51,3.89,29.32,29.32,0,0,1-4.94,7.2,26.39,26.39,0,0,1-4.57,4.44A27.91,27.91,0,0,1,486.7,152Zm8.24-23.53c-.64,8.28-1.65,12.22-4.45,18.83.61-.27.91-.41,1.5-.7A8.77,8.77,0,0,0,494.7,144a19,19,0,0,0,2.7-4.77,37.13,37.13,0,0,0,1.36-4.18,9.26,9.26,0,0,0,.22-4.89c-.37-1.26-1.1-1.9-2.13-1.82Z"/><rect class="cls-8" x="954.73" y="0.94" width="180" height="244.69"/><circle class="cls-5" cx="1042.35" cy="62.04" r="61.17"/><circle class="cls-5" cx="1042.35" cy="184.38" r="61.17"/><g class="cls-9"><g class="cls-9"><g class="cls-10"><path class="cls-3" d="M1079.46,74.19a59.49,59.49,0,0,0-6.54-4.25c-2.27-1.23-2.27-1.23-3.5-1.82,2.15,1.13,5,2.7,7.06,4,5,3.56,5.14,3.63,7.52,5.77,1.3,1.27,3.06,2.94,4.3,4.27l-.74-.78a65.19,65.19,0,0,0-8.1-7.16"/></g></g><g class="cls-9"><g class="cls-11"><path class="cls-3" d="M1002.36,125.48c-2.12.6-4.14,1.14-6,1.62a75.7,75.7,0,0,1-.59-18l-.45.11a76.08,76.08,0,0,1-7.62,1.57,66,66,0,0,0-.59,18.28,20.17,20.17,0,0,1-2.79.23,62.9,62.9,0,0,1,10.78-41.58,13.58,13.58,0,0,0,1.59-.13,62.12,62.12,0,0,0-7.5,16.67,69.4,69.4,0,0,0,7-1.44l.41-.11a61.06,61.06,0,0,1,5.32-16.22c1.07-.27,2.22-.58,3.43-.92-4.47,11.12-5.64,25.3-3,40"/><path class="cls-3" d="M1034.34,115c-9,3.28-17.87,6.27-25.75,8.68-3.07-14.54-2.88-28.44.3-39.17,4.47-1.36,9.51-3.07,14.61-4.92.34,1.38.71,2.84,1.12,4.39-4.19,1.53-8.34,3-12.25,4.23a77.51,77.51,0,0,0-.17,9c4-1.31,8.26-2.76,12.56-4.3.45,1.8,1,3.67,1.48,5.59-4.67,1.67-9.28,3.25-13.65,4.67.35,3.76.92,7.67,1.7,11.68,5.71-1.85,11.77-4,17.89-6.18.7,2.08,1.42,4.21,2.16,6.36"/><path class="cls-3" d="M1063.88,103.33c-7.72,3.31-16.19,6.68-24.68,9.85-5.16-13.82-9.73-26.09-12.91-34.65,1.5-.56,3-1.13,4.48-1.71A243,243,0,0,1,1044.44,104c5.58-2.17,11-4.39,16.16-6.58q1.7,2.86,3.28,5.91"/><path class="cls-3" d="M1085.84,92.87q-4.54,2.56-12.11,6.09-2.79,1.29-5.8,2.61c-7.11-13-16.16-23.49-25.3-29.64,1.14-.5,2.24-1,3.3-1.49l.48-.22c8.89,4.67,17.47,12.53,24.49,22.6,4.47-2.08,8.08-3.92,10.83-5.47q2.18,2.64,4.11,5.52"/><path class="cls-3" d="M1079.91,74.8c5.25,4,8.68,8,8,9.15-1.23.74-4.6-1.91-10.46-6.66a65.14,65.14,0,0,0-6.42-4.58c-9.63-6-9.63-6-8.74-6.31.35-.14,3.68,0,11,4a62.28,62.28,0,0,1,6.65,4.35m-3.43-2.71c-2.08-1.25-4.9-2.86-7.06-4l-1.42-.65c-7.76-3.3-12-3.59-12.51-2.73.1.73.1.73,13.12,9.51a66.4,66.4,0,0,1,6.11,4.68c17.39,14.95,17.75,10.21,17.73,9.62,0-1.38-2.27-5-8.45-10.69-4.5-3.74-5.19-4.32-7.52-5.77"/><path class="cls-3" d="M1034.37,166.5c-1.66.54-3.29,1.05-4.87,1.53a102.87,102.87,0,0,1-17.82-17.6l-.13,0c1.68,5.83,3.59,12.44,9.12,20.08l-2.14.55-1.72.41c-5.55-4.14-17.1-12.77-24.71-29.78,1.16-.21,2.47-.48,3.91-.8A76.82,76.82,0,0,0,1011.49,163h.11c-2.58-5.39-5.25-11-7.17-24.22l4.2-1.2a107.74,107.74,0,0,0,16.75,21.48l.11,0c-2.09-5.58-4.26-11.35-6.51-24.66,2.1-.68,4.26-1.39,6.44-2.13,1.26,8.44,3.37,22.55,8.95,34.26"/><path class="cls-3" d="M1057.61,144.34c1.62,5.49.27,9.19-4,11-5.45,1.75-8.62-2.13-10.31-5.69q-1.27-2.9-2.55-6c-4.06-10.8,4.71-14.39,9.56-12,3.35,1.66,4.7,5.18,5.2,6.5.74,2.1,1.43,4.16,2.1,6.16m6.51-2.59q-.87-3-1.87-6.17c-2.8-7.68-9.92-14.14-21.5-9.27-7.48,4-10,11.37-6.68,19.72.9,2,1.8,4,2.72,5.86,7.63,14.12,24.15,9.27,27.38-1.58a15.16,15.16,0,0,0-.05-8.56"/><path class="cls-3" d="M1083.05,123.13c.89,4.49-2.44,6.09-3.7,6.69-1.7.76-3.44,1.51-5.23,2.28-.89-3.45-2-7-3.22-10.59,1.87-.8,3.7-1.6,5.48-2.38,4.73-1.89,6.21,1.7,6.67,4m8.39,20.92.06-.49c-.29-.38-.76-1-.76-4.74q0-1.26,0-2.55c-.35-6.58-3.46-6.52-5-6.49,6.13-7.57.76-18.23-6.75-17.69a14.81,14.81,0,0,0-4.77,1.3c-3.8,1.68-7.83,3.39-12,5.1.39,1,.77,2,1.14,3a151.25,151.25,0,0,1,8.34,31.37c1.86-.76,3.69-1.53,5.47-2.29a93.92,93.92,0,0,0-1.81-13.05q2.88-1.23,5.6-2.43c2.94-1.17,4.54,0,4.9,3.55.06.81.1,1.61.13,2.4.18,4.31.51,4.65,1,5.16,1.6-.74,3.09-1.46,4.44-2.13"/><path class="cls-3" d="M1102.23,123.34c.17,5.69-.83,9.91-2.69,11.29-.55.34-1.15.69-1.81,1.07a65.35,65.35,0,0,0-3.16-25.46q1.11-.63,2-1.2c2.47-1.19,4.2,3.37,5,8,.31,2.09.52,4.18.62,6.25m1.37-1.18q-.13-3.12-.58-6.25c-1.19-7.19-4.11-14.82-8.42-12.69q-2.37,1.45-5.94,3.32c.41,1,.8,2,1.18,3a68.72,68.72,0,0,1,4.06,33.3c2-1,3.66-2,5-2.8,3.55-2.61,4.93-10.85,4.72-17.85"/><path class="cls-3" d="M1032.52,179.83l-.48.12c-.51.13-1,.25-1.46.35a49.33,49.33,0,0,1-5.68-2.84l.66-.15a50.54,50.54,0,0,0,4.72,2.47l.9-.22.49-.13.85.4"/><path class="cls-3" d="M1035.26,179.11l-2.26.6a47.48,47.48,0,0,1-5.36-2.92c.83-.21,1.69-.44,2.57-.69l.77.52-1.8.48,1.32.79,1.49-.4.78.46-1.46.39c.5.28,1,.54,1.51.8l1.65-.45.79.42"/><path class="cls-3" d="M1034.8,177.67l-1.42-1.36h0l2.35,1.09-1,.27m3.15.67.74-.21c-1.81-.79-4.22-1.87-6-2.73l-.83.24c1.05,1.06,2.49,2.45,3.64,3.4l.7-.2-.82-.66,1.29-.37,1.27.53"/><path class="cls-3" d="M1038.33,175.24c.47.42,0,.57-.16.63l-.7.21c-.43-.31-.86-.63-1.28-1l.74-.22a1.43,1.43,0,0,1,1.4.35m3.88,1.81-.06,0a2.14,2.14,0,0,1-.83-.4,3.55,3.55,0,0,1-.31-.23,2.51,2.51,0,0,0-1.67-.54c.59-.81-1.2-1.86-2.7-1.59l-.37.09-1.61.48a44.55,44.55,0,0,0,4.51,3.17l.75-.23c-.59-.38-1.18-.77-1.77-1.19l.76-.23a1.54,1.54,0,0,1,1.3.3l.3.21a2,2,0,0,0,.9.45l.8-.25"/><path class="cls-3" d="M1046.11,175.8l-.81.27c-1.29-.5-3-1.17-4.29-1.69h0c.89.79,1.77,1.53,2.66,2.21l-.79.25a45.43,45.43,0,0,1-4-3.32l.9-.28c1.31.54,3,1.28,4.35,1.81h0c-.83-.75-1.67-1.56-2.5-2.41l.92-.31a47.67,47.67,0,0,0,3.56,3.46"/><path class="cls-3" d="M1052,173.8l-.84.29c-.4-.46-.79-.94-1.19-1.45l-1.82.63c.43.49.86,1,1.28,1.41l-.84.29c-1.06-1.07-2.14-2.27-3.22-3.57l1-.33c.45.57.9,1.12,1.34,1.64l1.86-.64c-.41-.53-.82-1.09-1.24-1.67l1-.33c.94,1.35,1.86,2.6,2.75,3.73"/><path class="cls-3" d="M1054.67,171c.54,1-.14,1.26-.36,1.35a1.37,1.37,0,0,1-1.61-.65c-.15-.23-.31-.45-.46-.69-.78-1.28.52-1.6,1.07-1.47a1.51,1.51,0,0,1,1,.75l.41.71m.92-.33c-.12-.24-.25-.48-.38-.72a2.43,2.43,0,0,0-3.22-.93,1.45,1.45,0,0,0-.67,2.32c.16.23.31.46.47.68,1.36,1.76,3.82,1,4-.34a1.6,1.6,0,0,0-.22-1"/><path class="cls-3" d="M1061.2,170.49l-.81.3-1.9-2.34h0c.1.88.21,2,.31,2.93l-.8.29-3.09-3.6,1-.35c.61.77,1.41,1.81,2,2.58h0c-.12-1-.28-2.22-.38-3.18l.73-.27,2,2.57h0c-.12-1-.28-2.23-.39-3.19l1-.36c.09,1.38.23,3.23.34,4.62"/><path class="cls-3" d="M1067,164.29l-1.35.53q.39,2,.66,3.72l-.87.34c-.21-1.16-.47-2.39-.75-3.69l-1.36.53c-.06-.24-.13-.47-.19-.72l3.74-1.45.12.74"/><path class="cls-3" d="M1070.55,165a1.62,1.62,0,0,1-.91,1.6c-.22.08-.89.32-1-.83,0-.27,0-.54-.08-.82-.12-1.54,1.18-2,1.66-1.62a1.2,1.2,0,0,1,.33.82c0,.28,0,.57,0,.85m.88-.36c0-.28,0-.57,0-.86-.09-1.34-1-1.77-2.31-1.17a2.69,2.69,0,0,0-1.5,2.7c0,.28.07.55.1.82.33,2,2.27,1.37,3.11.28a2.75,2.75,0,0,0,.62-1.77"/><path class="cls-3" d="M1077,163.14c-.35,1.51-2.49,2.5-3,1.7a1.12,1.12,0,0,1-.13-.72l.83-.35c-.06,1.15,1.19.21,1.21.2.21-.19.72-1-.07-1.07a5.68,5.68,0,0,1-1.3-.07.6.6,0,0,1-.42-.43,2,2,0,0,1,.85-2,3.4,3.4,0,0,1,.84-.5c1.67-.64,1.58.77,1.53.89l-.85.36c0-.9-.87-.48-1.19-.16,0,0-.9,1,.22,1s1.19,0,1.34.15a.92.92,0,0,1,.19,1"/><path class="cls-3" d="M1078.83,161.69l.86-2.26h0l.14,1.82-1,.45m1,1.24.77-.34c-.05-1.39-.15-3.24-.32-4.62l-.89.39c-.65,1.73-1.52,4-2.22,5.73l.79-.34.49-1.18,1.39-.6v1"/><path class="cls-3" d="M1083.31,159.8q-.27.93-.57,1.83l-.72.33c.19-.61.38-1.24.55-1.88-.18-.85-.38-2-.62-2.83l.93-.42.33,2.13h0l1.47-2.94.4-.19.48-.22c-.67,1.26-1.7,2.88-2.26,4.2"/><path class="cls-3" d="M1088.12,159.06l-.57.29c.33-.76.65-1.53,1-2.32l-1.3.64c-.27.77-.57,1.53-.88,2.28l-.64.31a48.19,48.19,0,0,0,1.86-5.59l.72-.35c-.23.84-.49,1.67-.76,2.48l1.33-.65c.29-.82.57-1.66.82-2.51l.66-.33a48.77,48.77,0,0,1-2.19,5.75"/><path class="cls-3" d="M1090.47,157.84l-1.74.91A48,48,0,0,0,1091,153l2-1c-.11.32-.23.64-.34,1l-1.34.71c-.18.5-.36,1-.55,1.49l1.12-.59c-.12.3-.25.6-.38.91l-1.1.58c-.23.55-.46,1.09-.71,1.63l1.23-.65c-.14.3-.29.59-.43.89"/><path class="cls-3" d="M1092.2,156.87c-.42.24-.87.5-1.37.77a50,50,0,0,0,2.56-5.95c.18-.09.35-.18.51-.28a51,51,0,0,1-2.17,5.08l1-.53-.48.91"/><path class="cls-3" d="M1093.6,156l-1.11.69a54,54,0,0,0,2.79-6.08l.42-.25a55.21,55.21,0,0,1-2.35,5.19l.76-.48-.51.93"/><path class="cls-3" d="M1095.93,152.81a7.61,7.61,0,0,1-1.15,1.86l0,0h0a5.89,5.89,0,0,1,.61-1.44c.19-.37.37-.75.55-1.12.81-1.72,1-1.93,1.14-1.93s.08.18-.53,1.49c-.18.38-.37.76-.56,1.13m.25-.18.56-1.14c.93-2,.87-2.38.7-2.32a.51.51,0,0,0-.13.09,12.81,12.81,0,0,0-1.75,3.07c-.17.37-.35.74-.53,1.11a8.38,8.38,0,0,0-.88,2.19c.31.06,1.39-1.76,2-3"/></g></g></g><rect class="cls-2" x="190.95" y="0.9" width="180" height="244.69"/><g class="cls-9"><g class="cls-9"><g class="cls-12"><path class="cls-4" d="M303.24,68.48c-1-.44-2.23-1-3.21-1.45s-2.17-.81-3.12-1.11a7.9,7.9,0,0,0-2.73-.28c.44.13.89.28,1.33.44s.87.32,1.3.5.86.35,1.29.55l1.26.6a8.23,8.23,0,0,1,.86,0,8.12,8.12,0,0,1,.85.07,8,8,0,0,1,.82.18,7.46,7.46,0,0,1,.8.26l.14.06.14.06.14.07.13.06"/><path class="cls-4" d="M325.47,96.5c-.47-1.46-1.09-3.4-1.63-4.83,0,0,2.09,6.49,2.55,8.56-.28-1.12-.58-2.63-.92-3.73m1.29,5.66a3.11,3.11,0,0,0-.19-.64,3.28,3.28,0,0,0-.34-.6,4.41,4.41,0,0,0-.5-.58,5.14,5.14,0,0,0-.65-.53l-.4-1A67.17,67.17,0,0,1,322,91.28c-.33-1.23-1-3.76-.76-5.11l1.37,2.65a50.29,50.29,0,0,1,2.86,7.68c.42,1.69,1,4,1.29,5.66"/><path class="cls-4" d="M276.6,174.73a42.83,42.83,0,0,0,6.89-1.2l-.25.06-.25,0-.26,0-.26,0c-.63.16-1.26.3-1.88.43s-1.25.24-1.88.34-1.24.17-1.86.24-1.23.11-1.84.15l1.59-.12"/><path class="cls-4" d="M292.24,170.38l.22-.1a54.13,54.13,0,0,0,7.25-4.16,56.56,56.56,0,0,0,6.41-5.07c1.21-1.19,2.84-2.77,4-4a1.31,1.31,0,0,1-.32.25,1.92,1.92,0,0,1-.42.16,2.72,2.72,0,0,1-.52.07,4.59,4.59,0,0,1-.62,0q-1.89,2.09-3.94,4c-1.36,1.25-2.78,2.44-4.24,3.55a53.2,53.2,0,0,1-4.53,3.09,52.65,52.65,0,0,1-4.78,2.6l-.11,0-.1.05a3.19,3.19,0,0,0,.45,0,3.11,3.11,0,0,0,.44-.08,4.48,4.48,0,0,0,.81-.28"/><path class="cls-4" d="M315.53,150.23l1-1.44c.79-1.3,1.86-3,2.6-4.33,0,0,0,0,0,0,.61-1.11,1.19-2.23,1.74-3.37s1.07-2.3,1.56-3.47.95-2.35,1.37-3.55.82-2.4,1.18-3.62a.34.34,0,0,0-.07-.17,1.39,1.39,0,0,0-.21-.22l-.35-.25c-.14-.09-.31-.19-.5-.29q-.81,2.79-1.86,5.51c-.69,1.81-1.46,3.59-2.29,5.34s-1.73,3.46-2.7,5.13-2,3.29-3.08,4.86a3.75,3.75,0,0,0,.6.1,2.63,2.63,0,0,0,.48,0,.85.85,0,0,0,.35-.09.44.44,0,0,0,.22-.18"/><path class="cls-4" d="M327.59,110.51l-.16-3c.11,1.64.19,4.38.17,5.85v-2.89m-.32,8.21-.23,1.91,0-.38c.21-4.52-.61-9-.75-13.49,0-2.11,0-3,.1-5.51a1.51,1.51,0,0,1,.11.22.92.92,0,0,1,.09.23,1.55,1.55,0,0,1,.08.23c0,.07,0,.15.05.23a56.59,56.59,0,0,1,.83,8.35,60.37,60.37,0,0,1-.32,8.21"/></g></g><g class="cls-9"><g class="cls-13"><path class="cls-4" d="M305.23,99.57a18,18,0,0,0-1.46-1.44,19.1,19.1,0,0,0-1.59-1.26c-.55-.38-1.12-.74-1.7-1.06a17.29,17.29,0,0,0-1.79-.86c.54-.52,1.07-1.08,1.58-1.68s1-1.25,1.46-1.93.9-1.41,1.31-2.17.78-1.55,1.12-2.38l.38.16.37.17.38.18.37.18c-.14.3-.29.59-.43.88s-.3.58-.46.86-.31.56-.48.83-.33.54-.5.8c.59.3,1.18.62,1.75,1s1.12.74,1.66,1.14,1.06.85,1.56,1.31,1,1,1.46,1.46c-.39.38-.78.74-1.19,1.09s-.81.68-1.23,1-.84.63-1.27.92-.86.56-1.3.82"/><path class="cls-4" d="M319.78,108.56c-1.88.34-4.3.32-5.15-1.78-.3-1.39-.09-2.38,3.2-6,.26.58.5,1.19.73,1.8s.45,1.25.65,1.89.38,1.3.54,2,.32,1.35.45,2l-.42.1m-7.23,3c.68-.14,1.37-.29,2-.47s1.34-.36,2-.57,1.3-.43,1.92-.67,1.24-.5,1.82-.78c-.19-1.12-.43-2.2-.71-3.26s-.6-2.07-.95-3-.76-1.94-1.19-2.85-.9-1.79-1.4-2.63l-.25.29c-6,7.32-6,7.32-6.34,8.85-.72,3.07,2.59,5.07,3.07,5.14"/></g></g><g class="cls-9"><g class="cls-14"><path class="cls-4" d="M274.31,144.09a14,14,0,0,0,2,.49,14.93,14.93,0,0,0,2.12.21,18.18,18.18,0,0,0,2.2-.1,17.87,17.87,0,0,0,2.24-.4c.3.31.58.64.86,1s.55.71.82,1.09.52.78.76,1.19.49.83.71,1.27c-.6.15-1.21.27-1.81.36a15.6,15.6,0,0,1-1.78.19c-.59,0-1.18,0-1.75,0s-1.15-.08-1.71-.16a21.76,21.76,0,0,1,.55,2.25,23.32,23.32,0,0,1,.31,2.41,23.61,23.61,0,0,1,.07,2.53,25.91,25.91,0,0,1-.2,2.61c.64.09,1.28.15,1.94.19s1.31,0,2,0,1.33-.07,2-.15,1.35-.18,2-.31l.06.8c0,.26,0,.53,0,.8s0,.53,0,.8,0,.53,0,.8a27,27,0,0,1-3.29.44,24.62,24.62,0,0,1-3.21,0,26.66,26.66,0,0,1-3.11-.36,25.07,25.07,0,0,1-3-.73,26.51,26.51,0,0,0,1.27-4.95,22.47,22.47,0,0,0,.24-4.73,17.88,17.88,0,0,0-.74-4.21,12.14,12.14,0,0,0-1.65-3.41"/><path class="cls-4" d="M286.45,143l.09,0,.65-.31.64-.34.62-.36.62-.38a28.31,28.31,0,0,1,3.16,3.14,37.68,37.68,0,0,1,2.9,3.83,38.19,38.19,0,0,1,2.45,4.24,32,32,0,0,1,1.78,4.41l-1,.62c-.34.21-.68.4-1,.59s-.69.38-1,.56-.7.36-1.06.52l-.11.06h0a30.75,30.75,0,0,0-1.24-4.7,34.24,34.24,0,0,0-2-4.51,30.26,30.26,0,0,0-2.52-4,24.12,24.12,0,0,0-2.89-3.3"/><path class="cls-4" d="M296.68,134.13c.15-.21.3-.43.44-.65s.29-.44.42-.66l.41-.67.39-.69c1.31.65,2.69,1.36,4.1,2.11s2.85,1.54,4.26,2.33,2.81,1.61,4.13,2.41,2.56,1.57,3.68,2.31c-.21.37-.42.75-.64,1.12s-.44.73-.66,1.1l-.69,1.08c-.24.36-.47.71-.72,1.06-1-.93-2.13-1.89-3.34-2.86s-2.5-1.94-3.82-2.88-2.68-1.87-4-2.73-2.67-1.67-3.94-2.38"/><path class="cls-4" d="M320.64,119.47c-.07,0-7.23.42-7.7-3.35.05-1.05.14-2.65,7.54-6,.12.77.21,1.54.28,2.31s.12,1.55.15,2.33,0,1.56,0,2.34,0,1.57-.09,2.35l-.2,0m-.94,4.27.65,0c.19-1.22.34-2.44.44-3.67s.15-2.45.15-3.67-.05-2.45-.15-3.67-.26-2.43-.47-3.63c-.76.36-1.56.69-2.38,1s-1.67.57-2.53.81-1.75.46-2.63.64-1.78.34-2.67.46l-.58.47c-6.24,6,4.12,10.83,10.17,11.25"/></g></g><g class="cls-9"><g class="cls-15"><path class="cls-4" d="M264.38,134.14l.27.66c.09.22.18.43.28.64l.3.62.32.61,0,0,0,0,0,0,0,0c-.18-.34-.42-.8-.58-1.15l-.33-.83c0-.06-.05-.12-.08-.17a1.42,1.42,0,0,0-.08-.18l-.09-.17a1,1,0,0,0-.1-.17"/></g></g><g class="cls-9"><g class="cls-16"><path class="cls-4" d="M262.71,124.51c0,.32-.07.65-.1,1s-.05.65-.07,1,0,.66-.05,1,0,.65,0,1a5.72,5.72,0,0,1-1,.7,11.17,11.17,0,0,1-1.34.66c-.51.21-1.07.41-1.69.6s-1.29.36-2,.52c0-.43,0-.86,0-1.3l.06-1.29c0-.44.06-.87.1-1.3s.08-.86.13-1.3c.72,0,1.39-.1,2-.18a16.7,16.7,0,0,0,1.67-.27,10.38,10.38,0,0,0,1.32-.35,5.75,5.75,0,0,0,1-.42"/><path class="cls-4" d="M266,113c-.14.3-.27.6-.4.91s-.25.61-.37.91-.24.62-.36.93l-.33.93c-.22,0-.51-.07-.85-.13s-.73-.15-1.18-.26l-1.52-.38-1.85-.51c.14-.41.28-.82.44-1.23s.3-.82.46-1.22.33-.81.5-1.21.34-.8.52-1.2l1.72.83,1.4.69,1.08.54.74.4"/><path class="cls-4" d="M278.27,98a32.31,32.31,0,0,0-2.58,2c-.83.7-1.63,1.44-2.4,2.23s-1.5,1.61-2.2,2.47-1.36,1.76-2,2.69a6.82,6.82,0,0,0-.53-.8c-.22-.3-.5-.62-.82-1s-.71-.74-1.14-1.16-.91-.85-1.45-1.32l.74-1.06c.25-.36.51-.7.76-1l.79-1,.81-1c.17.21.34.41.49.61l.45.59c.15.19.29.37.42.56l.37.53c.59-.71,1.21-1.41,1.85-2.08s1.3-1.31,2-1.93,1.38-1.22,2.1-1.78,1.44-1.1,2.19-1.61c.08.41.15.8.19,1.18a10.66,10.66,0,0,1,.09,1.09,8.22,8.22,0,0,1,0,1,6.19,6.19,0,0,1-.11.89"/><path class="cls-4" d="M293.14,93.62a19.68,19.68,0,0,0-2.55,0,21.65,21.65,0,0,0-2.63.31,22.27,22.27,0,0,0-2.68.66,25.71,25.71,0,0,0-2.71,1,10.44,10.44,0,0,0,.44-1.63,15.32,15.32,0,0,0,.22-1.89c0-.67,0-1.38,0-2.13s-.14-1.52-.27-2.34c.37-.16.74-.32,1.11-.46l1.11-.43c.37-.13.74-.26,1.11-.37s.73-.23,1.1-.33c0,.31,0,.62,0,.92s0,.6,0,.9,0,.58-.05.87-.05.56-.08.83c.74-.2,1.47-.37,2.2-.51s1.45-.24,2.17-.32,1.42-.11,2.13-.11a20.45,20.45,0,0,1,2.08.07c-.17.48-.37,1-.57,1.4s-.42.88-.64,1.29-.47.82-.71,1.2-.5.74-.77,1.09"/><path class="cls-4" d="M298.69,95l-.42-.17-.42-.16-.42-.14-.43-.14A22.78,22.78,0,0,0,302,86l.56.18.55.19.56.21.54.22c-.34.83-.72,1.62-1.12,2.38s-.85,1.49-1.31,2.17-1,1.33-1.46,1.93-1,1.16-1.58,1.68"/><path class="cls-4" d="M264.73,134.83l.33.83c.17.35.39.81.58,1.15a5.67,5.67,0,0,1,.66,2.33,7.94,7.94,0,0,1-.35,2.7,12.49,12.49,0,0,1-1.33,2.92,18.26,18.26,0,0,1-2.3,3c.35.62.71,1.23,1.09,1.81s.79,1.14,1.21,1.67.85,1.06,1.3,1.55.92,1,1.4,1.41a21.08,21.08,0,0,0,1.76-3.8,16.26,16.26,0,0,0,.83-3.61,11.23,11.23,0,0,0-.11-3.25,7.67,7.67,0,0,0-1-2.71l.47.41c.15.14.31.27.47.4l.5.37.5.35A9.46,9.46,0,0,1,272,145.6a13.87,13.87,0,0,1,.21,4,19.81,19.81,0,0,1-.89,4.42,23.88,23.88,0,0,1-2,4.6,24.11,24.11,0,0,1-3.21-2.53,25.56,25.56,0,0,1-2.85-3.1,29.68,29.68,0,0,1-2.41-3.66,30.82,30.82,0,0,1-1.94-4.18,22,22,0,0,0,3.13-2.67,14.19,14.19,0,0,0,2-2.7,7.67,7.67,0,0,0,.91-2.59,4.74,4.74,0,0,0-.24-2.32"/></g></g><g class="cls-9"><g class="cls-17"><path class="cls-4" d="M261,110.5c-.18.4-.35.8-.52,1.2s-.34.8-.5,1.21-.31.81-.46,1.22-.3.82-.44,1.23l-1.44-.41-1.51-.46-1.58-.48L253,113.5c-.33,1-.65,2-.93,3s-.54,2-.77,3-.44,2-.61,3.07-.33,2.06-.45,3.09c.58,0,1.15.06,1.71.08s1.12,0,1.67,0h1.62c.53,0,1.05,0,1.55-.07-.05.44-.09.87-.13,1.3s-.07.86-.1,1.3l-.06,1.29c0,.44,0,.87,0,1.3a42.11,42.11,0,0,1-6.11.83,53.89,53.89,0,0,1-6.48.05,46.53,46.53,0,0,1-6.08-.71,23.7,23.7,0,0,1-4.9-1.42c-.26-.11-.51-.22-.73-.34a6.15,6.15,0,0,1-.63-.35c-.2-.12-.37-.24-.54-.36a4,4,0,0,1-.43-.37c0-.6,0-1.2,0-1.81s0-1.21.08-1.81.08-1.21.14-1.81.11-1.21.18-1.82c.13.11.28.22.44.33l.53.32.64.33c.22.11.46.23.72.34.66.28,1.4.55,2.2.81s1.66.5,2.56.73,1.86.44,2.84.64,2,.37,3,.52c.14-1.14.3-2.29.49-3.42s.42-2.28.68-3.41.54-2.25.86-3.36.66-2.23,1-3.33l-2.92-1-2.76-1c-.88-.33-1.72-.66-2.51-1l-2.18-.89-.73-.31-.64-.29-.55-.26-.46-.23c.19-.58.39-1.15.6-1.73s.43-1.14.66-1.7.45-1.13.69-1.69.48-1.12.73-1.67l.48.19.57.22.65.27.73.31c1.36.57,3,1.28,4.77,2.06s3.71,1.64,5.68,2.53,4,1.8,5.87,2.69,3.74,1.74,5.36,2.51"/><path class="cls-4" d="M263.26,73.13c-1.17.78-2.32,1.62-3.44,2.5s-2.21,1.8-3.28,2.77-2.09,2-3.1,3-2,2.13-2.91,3.25c.57.27,1.16.57,1.78.92s1.24.72,1.89,1.12,1.3.84,2,1.31,1.34.94,2,1.45q1.13-1.34,2.31-2.61c.8-.84,1.61-1.66,2.45-2.45s1.69-1.56,2.56-2.29,1.77-1.44,2.68-2.11c.35.37.69.75,1,1.15s.68.79,1,1.2.65.83,1,1.25.63.86.93,1.29q-1.25.91-2.43,1.92c-.8.67-1.57,1.36-2.33,2.08s-1.5,1.46-2.22,2.23-1.42,1.55-2.1,2.36l1.44,1.35c.47.45.93.91,1.37,1.36s.87.91,1.28,1.37.79.9,1.16,1.34l-.81,1-.79,1c-.25.35-.51.69-.76,1l-.74,1.06c-1.38-1.21-3-2.48-4.67-3.74s-3.51-2.51-5.32-3.68-3.61-2.26-5.3-3.2a46.72,46.72,0,0,0-4.64-2.29l-.74-.3-.67-.24-.59-.18-.51-.12q1.72-2.57,3.66-4.94t4.05-4.54q2.13-2.18,4.42-4.09a57.88,57.88,0,0,1,4.76-3.57c.2,0,.41,0,.62,0s.44.06.67.1a6.82,6.82,0,0,1,.71.19l.77.27.21.1.22.09L263,73l.22.11"/><path class="cls-4" d="M287.37,86c-.37.1-.73.21-1.1.33s-.74.24-1.11.37l-1.11.43c-.37.14-.74.3-1.11.46a31.44,31.44,0,0,0-1.76-6.26,33.49,33.49,0,0,0-2.94-5.72,25.33,25.33,0,0,0-3.7-4.57,13.54,13.54,0,0,0-4.06-2.77l-.77-.27a7.12,7.12,0,0,0-.74-.17,5.94,5.94,0,0,0-.71-.08,4.8,4.8,0,0,0-.66,0c.52-.23,1-.45,1.55-.66s1-.4,1.56-.58,1-.36,1.55-.52,1-.31,1.54-.45a4.18,4.18,0,0,1,.71,0,6.21,6.21,0,0,1,.73.07,7.37,7.37,0,0,1,.76.16c.25.08.51.16.77.27a11.4,11.4,0,0,1,3.92,2.82,21.25,21.25,0,0,1,3.31,4.7A29.66,29.66,0,0,1,287.37,86"/><path class="cls-4" d="M305.66,87.48l-.37-.18-.38-.18-.37-.17-.38-.16-.54-.22-.56-.21-.55-.19L302,86c3.42-10.79.05-18.26-5-20.07.93.33,2.2.74,3.12,1.11s2.27,1,3.21,1.45a7.47,7.47,0,0,1,3,2.9,11.65,11.65,0,0,1,1.48,4.51,18.71,18.71,0,0,1-.18,5.55,24.79,24.79,0,0,1-1.91,6"/><path class="cls-4" d="M323.25,107.13a9,9,0,0,1-3.05,1.33c-.13-.7-.28-1.38-.45-2s-.35-1.33-.54-2-.42-1.27-.65-1.89-.47-1.22-.73-1.8c.85-1,1.72-1.93,2.57-2.9.29-.34.56-.67.81-1a11.79,11.79,0,0,0,.68-1,9.79,9.79,0,0,0,.55-1,6.77,6.77,0,0,0,.42-1,11.17,11.17,0,0,1,.82-2.38.38.38,0,0,1,.16.17c.51,1.44,1.19,3.36,1.63,4.83.28,1.12.68,2.6.92,3.73.46,2.35.15,3.22-.32,4.12a7.58,7.58,0,0,1-.5.7c-.19.23-.4.46-.64.7s-.49.46-.77.69-.59.46-.91.69m-2.93,2a20.7,20.7,0,0,0,3-1.68,12.3,12.3,0,0,0,2.08-1.77,6,6,0,0,0,1.16-1.79,3.35,3.35,0,0,0,.2-1.72c-.36-1.7-.84-4-1.29-5.66a49.77,49.77,0,0,0-2.86-7.68l-1.34-2.65v0a13.64,13.64,0,0,1-.59,3.57c-.1.35-.22.71-.36,1.07a11.47,11.47,0,0,1-.49,1.09,12.21,12.21,0,0,1-.61,1.11c-.22.37-.47.75-.73,1.12-.89,1.23-1,1.33-2.41,3.18.5.84,1,1.72,1.4,2.63s.83,1.86,1.19,2.85.67,2,.95,3,.52,2.14.71,3.26"/><path class="cls-4" d="M258.89,145.11a30.82,30.82,0,0,0,1.94,4.18,29.68,29.68,0,0,0,2.41,3.66,25.56,25.56,0,0,0,2.85,3.1,24.11,24.11,0,0,0,3.21,2.53,26.18,26.18,0,0,1-3.17,4.47,22.45,22.45,0,0,1-3.74,3.42,17.43,17.43,0,0,1-4,2.2,11.29,11.29,0,0,1-3.92.8c-.4-.26-.78-.52-1.17-.8s-.76-.55-1.13-.84-.74-.59-1.1-.9-.72-.62-1.08-.94a12.8,12.8,0,0,0,3.29-.42,17.59,17.59,0,0,0,3.43-1.29,22,22,0,0,0,3.42-2.08,25.86,25.86,0,0,0,3.21-2.78q-.85-.79-1.65-1.65c-.53-.58-1-1.19-1.53-1.82s-1-1.28-1.42-2-.88-1.39-1.29-2.12a30.05,30.05,0,0,1-3.74,2.11,27.61,27.61,0,0,1-3.87,1.51,23.94,23.94,0,0,1-3.8.85,16.78,16.78,0,0,1-3.51.12c-.26-.45-.51-.92-.75-1.38s-.47-1-.7-1.43-.44-1-.65-1.48-.42-1-.62-1.52a21,21,0,0,0,4.55,0,30.44,30.44,0,0,0,5-1,32.84,32.84,0,0,0,5-1.87,30.27,30.27,0,0,0,4.6-2.66"/><path class="cls-4" d="M275.19,161.39a25.07,25.07,0,0,0,3,.73,26.66,26.66,0,0,0,3.11.36,24.62,24.62,0,0,0,3.21,0,27,27,0,0,0,3.29-.44c0,.27,0,.54,0,.8s0,.52-.06.78-.05.51-.08.76-.07.49-.11.73c-.8.16-1.6.29-2.4.38s-1.59.15-2.37.17-1.56,0-2.33,0-1.53-.11-2.28-.22a19.54,19.54,0,0,1-1.19,2.52,16.87,16.87,0,0,1-1.41,2.17,14.51,14.51,0,0,1-1.58,1.78,11.35,11.35,0,0,1-1.72,1.37,32.23,32.23,0,0,0,3.28.28c1.1,0,2.22,0,3.35,0s2.26-.2,3.41-.38,2.3-.42,3.46-.71l-.52.4a5.09,5.09,0,0,1-.54.32,4.8,4.8,0,0,1-.57.26,4.62,4.62,0,0,1-.6.19,43.08,43.08,0,0,1-6.89,1.2l-1.59.12c-1.07.06-2.13.07-3.18,0s-2.09-.11-3.11-.24a30.6,30.6,0,0,1-3-.51c-1-.21-2-.47-3-.77a9.23,9.23,0,0,0,3.59-1,14.08,14.08,0,0,0,3.46-2.45,19.84,19.84,0,0,0,3.05-3.74,24.74,24.74,0,0,0,2.37-4.84"/><path class="cls-4" d="M295.08,159.57l.11,0,0,0c.36-.16.71-.34,1.06-.52s.7-.36,1-.56.69-.38,1-.59l1-.62a21,21,0,0,1,.74,3.08,12.73,12.73,0,0,1,.17,2.61,7.37,7.37,0,0,1-.36,2.07,4.1,4.1,0,0,1-.87,1.49c1-.66,2-1.34,3-2.07s1.93-1.48,2.86-2.27,1.83-1.62,2.71-2.48,1.74-1.74,2.57-2.65l0,0c-1.19,1.22-2.77,2.84-4,4a56.28,56.28,0,0,1-6.41,5.07,54.2,54.2,0,0,1-7.25,4.16l-.22.1a4.32,4.32,0,0,0,1.67-1.41,7.14,7.14,0,0,0,1.09-2.34,13.1,13.1,0,0,0,.41-3.17,21.2,21.2,0,0,0-.33-3.89"/><path class="cls-4" d="M311.8,145c.25-.35.48-.7.72-1.06l.69-1.08c.22-.37.45-.73.66-1.1s.43-.75.64-1.12c.82.53,1.53,1,2.13,1.45s1.09.81,1.48,1.13a6.31,6.31,0,0,1,.82.8c.17.21.23.36.17.46-.77,1.3-1.78,3-2.6,4.33l-1,1.44a.81.81,0,0,0,0-.71,4.62,4.62,0,0,0-.61-1.14,13.91,13.91,0,0,0-1.26-1.51c-.52-.57-1.16-1.2-1.9-1.89"/><path class="cls-4" d="M321.47,119.37l-.63.08c.05-.78.08-1.56.09-2.35s0-1.56,0-2.34-.08-1.55-.15-2.33-.16-1.54-.28-2.31l.63-.3q.63-.3,1.2-.6c.37-.2.73-.41,1.06-.62s.64-.42.93-.64a9,9,0,0,0,.8-.65c1.87-1.67,2.15-1.93,2.33.24l.16,3v2.89c-.09,3-.54,4.11-2.09,4.92-.25.1-.52.21-.81.3a9.59,9.59,0,0,1-.94.28c-.34.09-.7.18-1.08.25s-.78.15-1.21.22m-.48,4.41,1.18,0,1-.07c.33,0,.64-.07.92-.12a7.43,7.43,0,0,0,.79-.15c1.87-.62,2-1.48,2.35-4.67a60.38,60.38,0,0,0,.32-8.21,58.16,58.16,0,0,0-.83-8.35,3.35,3.35,0,0,1-.2,1.72,6,6,0,0,1-1.16,1.79,12.3,12.3,0,0,1-2.08,1.77,20.7,20.7,0,0,1-3,1.68c.21,1.2.37,2.41.47,3.63s.15,2.44.15,3.67-.05,2.45-.15,3.67-.25,2.45-.44,3.67l.64,0"/></g></g></g><path class="cls-18" d="M277.4,129.83h0l-.71-.09c.16-.09.25-.13.41-.23.39.05.58.08,1,.16l-.39.23-1.37.28h0l.61.17-.39.23-2,.32.42-.23,1.34-.2h0l-.64-.17.32-.17Z"/><path class="cls-18" d="M279.89,128.29c.18,0,.24,0,.2.08a1.31,1.31,0,0,1-.46.36,4.88,4.88,0,0,1-.79.4,2.8,2.8,0,0,1-.69.19l-.26,0c-.18,0-.25,0-.2-.09a1.25,1.25,0,0,1,.46-.33,6,6,0,0,1,.81-.39,3.55,3.55,0,0,1,.68-.21Zm-.67.29a1.52,1.52,0,0,0-.4.11,3,3,0,0,0-.45.2c-.14.09-.22.14-.23.18s.05.05.17,0l.26,0a1.37,1.37,0,0,0,.4-.1,2,2,0,0,0,.44-.21c.14-.08.22-.15.22-.19s0,0-.15,0Z"/><path class="cls-18" d="M280.65,127.85l.56-.1-.41.25-1.41.24.8-.45a7,7,0,0,1,.66-.34,2.79,2.79,0,0,1,.5-.19c.08,0,.11,0,.1,0s0,.06-.12.12a3.07,3.07,0,0,1,.38-.18,1.68,1.68,0,0,1,.29-.1l.1,0,.15,0,.17-.07h0l-.43.27-.17.07-.15,0-.1,0a1.17,1.17,0,0,0-.25.08l-.29.16Zm-.22,0,.37-.22.21-.14s0,0-.06,0l-.24.09a2.31,2.31,0,0,0-.31.16L280,128Z"/><path class="cls-18" d="M282.71,126.8l-1.36.33.72-.42a8.46,8.46,0,0,1,.79-.41,5.1,5.1,0,0,1,.64-.27l.22-.07c.16,0,.21,0,.15,0a2.09,2.09,0,0,1-.46.35Zm-.73,0,.93-.24.27-.17a1,1,0,0,0,.25-.19s0,0-.13,0l-.22.06a2.92,2.92,0,0,0-.38.15,4.92,4.92,0,0,0-.45.24Z"/><path class="cls-18" d="M279,130.07h0l-.92-.18.5-.31c.5.1.75.16,1.27.29l-.46.32-1.7.33h0c.32.11.48.17.8.3l-.46.31c-1,.15-1.51.21-2.52.34l.5-.3,1.68-.22h0c-.34-.13-.5-.18-.83-.29l.38-.23Z"/><path class="cls-18" d="M281.93,128c.22,0,.3,0,.26.13a1.49,1.49,0,0,1-.53.5,5,5,0,0,1-1,.54,2.94,2.94,0,0,1-.85.23l-.33,0c-.22,0-.31,0-.26-.14a1.57,1.57,0,0,1,.54-.46,6.53,6.53,0,0,1,1-.51,3.39,3.39,0,0,1,.83-.27Zm-.82.38a1.89,1.89,0,0,0-.49.13,3.45,3.45,0,0,0-.54.28c-.17.11-.26.19-.26.24s.06.07.2.06l.33,0a2.18,2.18,0,0,0,.5-.13,2.69,2.69,0,0,0,.53-.28c.17-.12.26-.21.26-.26s-.06-.08-.2-.06Z"/><path class="cls-18" d="M282.83,127.36l.7-.11-.49.35-1.75.26.95-.61a7.65,7.65,0,0,1,.8-.46,2.35,2.35,0,0,1,.61-.24c.09,0,.13,0,.13,0a.5.5,0,0,1-.14.17,3.66,3.66,0,0,1,.46-.25,1.62,1.62,0,0,1,.35-.12l.13,0,.17,0,.21-.1h0l-.51.37-.21.08a.77.77,0,0,1-.19,0l-.12,0-.3.11-.35.21Zm-.26,0,.42-.3a1.22,1.22,0,0,0,.26-.2s0,0-.08,0a1.19,1.19,0,0,0-.29.11,2.47,2.47,0,0,0-.38.21l-.44.29Z"/><path class="cls-18" d="M285.31,126c-.68.16-1,.23-1.69.4l.86-.57c.31-.2.63-.38.95-.56a4.68,4.68,0,0,1,.78-.35l.27-.08c.2-.07.26-.05.2.06a2.53,2.53,0,0,1-.54.49Zm-.93,0,1.15-.29.33-.24a1,1,0,0,0,.29-.26s0-.06-.17,0l-.27.08a2.51,2.51,0,0,0-.46.19,5.09,5.09,0,0,0-.54.32Z"/><path class="cls-18" d="M280.94,130.52h0l-1.19-.32.59-.42c.64.17,1,.27,1.65.5l-.54.44c-.84.16-1.27.23-2.12.37h0c.42.18.63.28,1.06.49l-.55.43c-1.26.14-1.89.21-3.16.33l.6-.41,2.1-.22h0c-.45-.21-.67-.31-1.1-.49l.45-.31Z"/><path class="cls-18" d="M284.42,127.63c.27,0,.38,0,.34.2a1.9,1.9,0,0,1-.6.71,5.53,5.53,0,0,1-1.15.72,2.79,2.79,0,0,1-1,.29h-.42c-.29,0-.4-.07-.36-.23a1.77,1.77,0,0,1,.63-.63A7,7,0,0,1,283,128a3.55,3.55,0,0,1,1-.34Zm-1,.5a2.13,2.13,0,0,0-.6.17,3.51,3.51,0,0,0-.65.37c-.2.15-.3.26-.3.34s.09.11.27.1l.42,0a2,2,0,0,0,.61-.15,2.41,2.41,0,0,0,.63-.38c.2-.17.3-.29.3-.37s-.09-.11-.27-.1Z"/><path class="cls-18" d="M285.48,126.79l.87-.12-.57.48c-.89.1-1.33.16-2.2.28l1.13-.83a8.23,8.23,0,0,1,1-.63,2.82,2.82,0,0,1,.74-.32c.11,0,.16,0,.16,0s-.05.13-.15.25a4.16,4.16,0,0,1,.55-.34,1.92,1.92,0,0,1,.43-.16l.16,0,.22-.07a1.42,1.42,0,0,0,.25-.12h0l-.59.51a1.23,1.23,0,0,1-.26.12l-.23,0-.15,0a1.44,1.44,0,0,0-.37.14,2.64,2.64,0,0,0-.42.29Zm-.33,0,.5-.4a1.4,1.4,0,0,0,.3-.28c0-.06,0-.07-.11,0a.94.94,0,0,0-.35.14,3.06,3.06,0,0,0-.45.29l-.52.4Z"/><path class="cls-18" d="M288.43,124.88c-.83.18-1.25.28-2.08.48l1-.78c.36-.27.74-.53,1.12-.76a5.09,5.09,0,0,1,.95-.47l.33-.11c.24-.08.33,0,.26.1a2.9,2.9,0,0,1-.62.69Zm-1.17-.06,1.42-.36.38-.33a1.08,1.08,0,0,0,.34-.37c0-.07-.06-.08-.21,0l-.34.11a2.79,2.79,0,0,0-.56.25,6.1,6.1,0,0,0-.64.44Z"/><path class="cls-18" d="M283.5,131.3h0c-.64-.23-.95-.34-1.56-.54l.7-.58c.84.29,1.27.46,2.17.84l-.63.61c-1.06.18-1.59.26-2.65.41h0c.55.3.83.45,1.41.79-.25.24.16.36.35.6-1.28.13-1.91.18-3.17.28l-.55-.57,2.24-.17v0c-1.25-.33-1-.49-1.57-.78l.53-.43C281.86,131.58,282.41,131.49,283.5,131.3Z"/><path class="cls-18" d="M287.53,127.28c.34,0,.5.07.46.32a2,2,0,0,1-.67,1,5.14,5.14,0,0,1-1.35,1,2.94,2.94,0,0,1-1.29.36h-.53c-.36,0-.52-.13-.49-.36s.28-.52.72-.89a7.46,7.46,0,0,1,1.4-.94,3.55,3.55,0,0,1,1.25-.44Zm-1.19.67a2,2,0,0,0-.74.22,3,3,0,0,0-.78.5c-.24.21-.35.37-.34.48s.13.17.36.16h.53a1.94,1.94,0,0,0,.76-.18,2.7,2.7,0,0,0,.75-.53c.23-.22.34-.4.33-.52s-.13-.17-.36-.16Z"/><path class="cls-18" d="M288.77,126.11l1.09-.13-.66.68c-1.11.1-1.66.15-2.75.28l1.31-1.16a9.46,9.46,0,0,1,1.14-.86,3,3,0,0,1,.9-.43c.13,0,.2,0,.21.07a.72.72,0,0,1-.17.34,4.48,4.48,0,0,1,.66-.46,1.81,1.81,0,0,1,.53-.21l.19,0a1.5,1.5,0,0,0,.27-.08,1.46,1.46,0,0,0,.3-.16h0l-.68.71a1,1,0,0,1-.31.15,1.33,1.33,0,0,1-.29.07l-.19,0a1.24,1.24,0,0,0-.44.19,2.25,2.25,0,0,0-.5.4Zm-.42,0,.59-.55a1.69,1.69,0,0,0,.34-.4c0-.07,0-.1-.14-.08a1.24,1.24,0,0,0-.43.18,3,3,0,0,0-.53.41l-.61.55Z"/><path class="cls-18" d="M292.26,123.48c-1,.22-1.55.34-2.57.59l1.18-1.08a13,13,0,0,1,1.33-1,4.91,4.91,0,0,1,1.13-.64l.4-.14c.3-.1.42,0,.35.16a3,3,0,0,1-.7,1C292.94,122.77,292.71,123,292.26,123.48Zm-1.49-.15,1.75-.45.44-.45c.24-.25.36-.42.37-.53s-.07-.12-.27-.06l-.41.13a2.81,2.81,0,0,0-.67.34,5.87,5.87,0,0,0-.76.6Z"/><path class="cls-18" d="M287.05,132.09v0c-.74-.33-1.11-.49-1.82-.77l.72-.73c1,.42,1.5.66,2.56,1.19l-.65.77c-1.18.18-1.94.27-2.86.43h0c1.32.4,2,.62,3.26,1.07.2.3.29.46.49.76-1.41.11-2.1.15-3.49.22l-.55-.71c1-.05,1.47-.07,2.45-.14h0c-1.34-.46-2-.67-3.39-1.07-.17-.22,0-.33.21-.55C285.22,132.37,285.83,132.28,287.05,132.09Z"/><path class="cls-18" d="M291.18,127c.39,0,.57.13.56.45a2.37,2.37,0,0,1-.65,1.27,5.18,5.18,0,0,1-1.43,1.23,2.71,2.71,0,0,1-1.43.41l-.6,0c-.41,0-.61-.19-.59-.49a2.06,2.06,0,0,1,.71-1.14,6.88,6.88,0,0,1,1.49-1.16,3.2,3.2,0,0,1,1.37-.5Zm-1.28.82a2,2,0,0,0-.83.25,3,3,0,0,0-.82.62c-.25.26-.36.47-.33.61s.17.23.43.24l.6,0a1.74,1.74,0,0,0,.84-.21,2.54,2.54,0,0,0,.8-.64c.23-.29.34-.51.31-.67s-.17-.23-.42-.23Z"/><path class="cls-18" d="M292.46,125.55l1.23-.11c-.27.35-.4.52-.68.86-1.25.06-1.88.1-3.11.21.55-.58.82-.87,1.36-1.46a9.41,9.41,0,0,1,1.2-1.08,2.59,2.59,0,0,1,1-.5c.15,0,.23,0,.25.1a.89.89,0,0,1-.15.44,4.26,4.26,0,0,1,.7-.56,1.63,1.63,0,0,1,.58-.24l.22,0,.3-.09a1.94,1.94,0,0,0,.33-.2h0c-.28.36-.42.53-.69.89a.84.84,0,0,1-.35.18l-.32.08-.21,0a1.19,1.19,0,0,0-.49.21,3,3,0,0,0-.53.5Zm-.47,0,.6-.7a1.58,1.58,0,0,0,.34-.49c0-.11,0-.15-.17-.13a1.39,1.39,0,0,0-.47.22,3.1,3.1,0,0,0-.56.5l-.63.69Z"/><path class="cls-18" d="M296.15,122.31c-1.17.21-1.75.33-2.89.59l1.22-1.36a11.36,11.36,0,0,1,1.4-1.3,4.45,4.45,0,0,1,1.23-.76l.45-.15c.33-.11.47,0,.42.25a3.28,3.28,0,0,1-.68,1.23Zm-1.74-.31c.78-.2,1.18-.29,2-.47l.45-.56a1.46,1.46,0,0,0,.36-.68c0-.14-.1-.17-.32-.11l-.46.14a2.45,2.45,0,0,0-.73.4,5.53,5.53,0,0,0-.8.74Z"/><path class="cls-18" d="M291.6,133.24v0a15.75,15.75,0,0,1-2.55-1.06l.74-.92c1.17.59,1.78.91,3,1.64-.26.38.26.57.44,1-1,.19-1.54.28-2.55.44v0c1.41.54,2.11.83,3.48,1.44l.48.94c-1.54.09-2.3.12-3.81.15-.23-.35-.34-.53-.56-.89,1.07,0,1.61,0,2.68-.08v0c-1.43-.61-2.16-.9-3.63-1.44l-.42-.68C290,133.54,290.52,133.45,291.6,133.24Z"/><path class="cls-18" d="M295.34,126.85a.6.6,0,0,1,.69.61,2.9,2.9,0,0,1-.61,1.61,5.22,5.22,0,0,1-1.5,1.53,2.55,2.55,0,0,1-1.58.47l-.68-.07c-.47-.05-.71-.27-.73-.66a2.47,2.47,0,0,1,.68-1.45,6.69,6.69,0,0,1,1.57-1.45,3,3,0,0,1,1.51-.58Zm-1.38,1a1.83,1.83,0,0,0-.91.28,3,3,0,0,0-.87.77c-.25.33-.36.59-.31.78s.22.3.51.32l.69.05a1.57,1.57,0,0,0,.93-.23,2.45,2.45,0,0,0,.84-.8,1.16,1.16,0,0,0,.29-.84c-.05-.21-.22-.31-.51-.32Z"/><path class="cls-18" d="M296.64,125,298,125c-.28.43-.41.65-.69,1.07-1.43,0-2.13,0-3.53.11l1.4-1.82a8.3,8.3,0,0,1,1.24-1.35,2.41,2.41,0,0,1,1.07-.59c.17,0,.27,0,.3.14a1.25,1.25,0,0,1-.12.58,3.6,3.6,0,0,1,.74-.7,1.45,1.45,0,0,1,.64-.27l.24,0a1.09,1.09,0,0,0,.33-.1,1.16,1.16,0,0,0,.36-.23h.05l-.7,1.12a1,1,0,0,1-.37.21,2.18,2.18,0,0,1-.36.08l-.24,0a1,1,0,0,0-.54.25,2.78,2.78,0,0,0-.55.61Zm-.54,0,.62-.88a1.88,1.88,0,0,0,.33-.63c0-.13-.05-.19-.21-.17a1.11,1.11,0,0,0-.52.25,3.53,3.53,0,0,0-.58.62l-.64.87Z"/><path class="cls-18" d="M300.51,121c-1.32.21-2,.32-3.26.58l1.25-1.7a10.33,10.33,0,0,1,1.45-1.62,4,4,0,0,1,1.33-.9l.51-.16c.37-.12.54,0,.52.37a4,4,0,0,1-.65,1.56Zm-2-.53c.88-.19,1.32-.29,2.21-.46l.46-.72a1.71,1.71,0,0,0,.34-.85c0-.18-.14-.24-.39-.17l-.51.14a2.25,2.25,0,0,0-.8.48,4.37,4.37,0,0,0-.83.92Z"/><path class="cls-18" d="M297.51,134.8v0c-1.53-.61-2.3-.9-3.87-1.43-.21-.46-.06-.68.25-1.14a49.73,49.73,0,0,0,4.94,2.19l.45,1.19c-1.14.2-1.7.29-2.82.46v0c1.51.71,2.25,1.09,3.71,1.88l.45,1.18c-1.68.05-2.51.05-4.16,0l-.55-1.11h2.93v0c-1.52-.81-2.29-1.19-3.86-1.9l-.41-.85C295.73,135.11,296.32,135,297.51,134.8Z"/><path class="cls-18" d="M299.76,126.85a.79.79,0,0,1,.84.8,3.64,3.64,0,0,1-.54,2,5.33,5.33,0,0,1-1.56,1.88,2.41,2.41,0,0,1-1.74.53L296,132a.92.92,0,0,1-.88-.86,3,3,0,0,1,.63-1.83,7.05,7.05,0,0,1,1.64-1.78,2.81,2.81,0,0,1,1.67-.68Zm-1.46,1.22a1.72,1.72,0,0,0-1,.31,3,3,0,0,0-.91,1,1.25,1.25,0,0,0-.28,1,.63.63,0,0,0,.61.44l.78.09a1.54,1.54,0,0,0,1-.26,2.49,2.49,0,0,0,.88-1,1.47,1.47,0,0,0,.25-1.06.59.59,0,0,0-.6-.43Z"/><path class="cls-18" d="M301.07,124.57l1.59,0-.69,1.33c-1.62,0-2.42,0-4,0,.56-.91.85-1.36,1.41-2.28a8.11,8.11,0,0,1,1.29-1.66,2.2,2.2,0,0,1,1.16-.69c.19,0,.31,0,.35.19a1.46,1.46,0,0,1-.08.73,3.74,3.74,0,0,1,.78-.86,1.49,1.49,0,0,1,.7-.31l.28,0a1.35,1.35,0,0,0,.37-.11,1.1,1.1,0,0,0,.38-.28h.06l-.7,1.39a1,1,0,0,1-.4.26,2.35,2.35,0,0,1-.4.08l-.27,0a1,1,0,0,0-.59.29,3.2,3.2,0,0,0-.57.76Zm-.61,0c.25-.43.38-.65.62-1.09a2.16,2.16,0,0,0,.32-.79c0-.16-.08-.24-.26-.22a1,1,0,0,0-.56.29,3.18,3.18,0,0,0-.61.77l-.65,1.08Z"/><path class="cls-18" d="M305.11,119.66c-1.49.19-2.23.3-3.68.55.5-.84.76-1.26,1.26-2.11a10.66,10.66,0,0,1,1.5-2,3.82,3.82,0,0,1,1.44-1.07l.56-.17c.42-.12.63,0,.64.51a4.6,4.6,0,0,1-.59,2C305.79,118.27,305.56,118.73,305.11,119.66Zm-2.39-.79c1-.21,1.48-.3,2.49-.47.18-.36.27-.53.44-.89a2.13,2.13,0,0,0,.31-1.08c0-.23-.18-.31-.46-.24l-.57.15a2.1,2.1,0,0,0-.88.57,4.84,4.84,0,0,0-.85,1.13C303,118.37,302.91,118.53,302.72,118.87Z"/><path class="cls-18" d="M303.68,136.89v0c-1.62-.79-2.44-1.17-4.12-1.88-.2-.56-.31-.84-.51-1.41a63.12,63.12,0,0,1,6.11,2.88l.4,1.48c-1.25.2-1.87.29-3.1.45v0c1.6.93,2.38,1.42,3.92,2.44.17.59.25.88.42,1.46-1.84,0-2.74,0-4.53-.11-.22-.55-.32-.83-.54-1.38,1.27.06,1.91.08,3.2.12v0c-1.6-1-2.42-1.53-4.09-2.46-.16-.42-.24-.63-.39-1.05C301.72,137.21,302.37,137.11,303.68,136.89Z"/><path class="cls-18" d="M304.65,127q.86.06,1,1a4.63,4.63,0,0,1-.44,2.52,5.62,5.62,0,0,1-1.61,2.31c-.66.54-.77.73-1.46.61l-1-.17a1.55,1.55,0,0,1-1.42-1.12,3.77,3.77,0,0,1,.55-2.28,7.21,7.21,0,0,1,1.71-2.18,2.65,2.65,0,0,1,1.83-.79Zm-1.55,1.49a1.63,1.63,0,0,0-1.12.36,3,3,0,0,0-1,1.16,1.71,1.71,0,0,0-.23,1.23.84.84,0,0,0,.73.57l.89.14a1.56,1.56,0,0,0,1.15-.29,2.66,2.66,0,0,0,.91-1.2,1.93,1.93,0,0,0,.19-1.33.77.77,0,0,0-.72-.56Z"/><path class="cls-18" d="M305.94,124.2l1.8,0c-.27.67-.4,1-.66,1.65-1.85-.11-2.76-.15-4.56-.19.57-1.12.85-1.69,1.41-2.82a9.35,9.35,0,0,1,1.31-2,2.13,2.13,0,0,1,1.26-.83.36.36,0,0,1,.42.27,1.87,1.87,0,0,1,0,.91,4,4,0,0,1,.8-1,1.51,1.51,0,0,1,.78-.37l.31,0a1.24,1.24,0,0,0,.41-.12,1.18,1.18,0,0,0,.41-.34h.06c-.26.69-.39,1-.66,1.72a.87.87,0,0,1-.44.31,1.65,1.65,0,0,1-.45.08h-.31a1,1,0,0,0-.64.35,3.23,3.23,0,0,0-.57.93C306.33,123.29,306.2,123.59,305.94,124.2Zm-.69,0,.61-1.36a2.6,2.6,0,0,0,.28-1,.26.26,0,0,0-.31-.3,1,1,0,0,0-.61.35,3.26,3.26,0,0,0-.62.94l-.65,1.35Z"/><path class="cls-18" d="M310.1,118.18c-1.68.17-2.51.27-4.15.52l1.25-2.62a11.42,11.42,0,0,1,1.53-2.46,3.71,3.71,0,0,1,1.55-1.27l.63-.18c.47-.13.72.09.78.68a6,6,0,0,1-.5,2.45C310.75,116.45,310.54,117,310.1,118.18Zm-2.8-1.13c1.11-.2,1.67-.29,2.8-.46.18-.44.26-.66.43-1.1a2.71,2.71,0,0,0,.26-1.35c-.06-.29-.24-.4-.55-.33l-.65.16a2,2,0,0,0-.94.67,5.37,5.37,0,0,0-.88,1.38Z"/><path class="cls-18" d="M310.49,139.73v0c-1.71-1-2.58-1.54-4.36-2.47-.18-.7-.28-1.05-.46-1.75a60.36,60.36,0,0,1,6.46,3.76c.13.74.2,1.11.34,1.84-1.38.21-2.06.29-3.41.44v0c1.67,1.2,2.49,1.83,4.09,3.16.14.72.21,1.09.36,1.81-2-.08-3-.15-4.92-.32-.2-.69-.3-1-.49-1.72,1.38.13,2.07.18,3.47.27v0c-1.67-1.34-2.53-2-4.28-3.18-.14-.52-.22-.79-.36-1.31C308.33,140.05,309.05,140,310.49,139.73Z"/><path class="cls-18" d="M310.4,127.44c.65.07,1.06.52,1.25,1.36a6.3,6.3,0,0,1-.28,3.15,29.09,29.09,0,0,1-.67,2.85,1.33,1.33,0,0,1-1.63.71l-1.09-.25a4,4,0,0,1-2.12-1.45,2.59,2.59,0,0,1-.15-2.86,7.37,7.37,0,0,1,1.74-2.69,2.56,2.56,0,0,1,2-.93Zm-1.63,1.81a1.59,1.59,0,0,0-1.24.41,3.29,3.29,0,0,0-1,1.43,2.23,2.23,0,0,0-.16,1.54,1.46,1.46,0,0,0,1.16.74l1.12.22a1,1,0,0,0,1.09-.32,5.17,5.17,0,0,0,.74-1.48,2.66,2.66,0,0,0,.1-1.67,1,1,0,0,0-.86-.73Z"/><path class="cls-18" d="M311.62,123.94c.81,0,1.22.07,2,.13l-.6,2c-2.1-.22-3.14-.3-5.19-.43.54-1.4.81-2.1,1.34-3.51a10.44,10.44,0,0,1,1.32-2.52,2.09,2.09,0,0,1,1.36-1,.47.47,0,0,1,.5.36,2.71,2.71,0,0,1,.05,1.15,4.34,4.34,0,0,1,.83-1.27,1.3,1.3,0,0,1,.85-.42l.35,0a1.29,1.29,0,0,0,.46-.13,1.1,1.1,0,0,0,.44-.42h.07c-.24.86-.36,1.29-.61,2.14a.88.88,0,0,1-.47.37,1.92,1.92,0,0,1-.5.08h-.35a.92.92,0,0,0-.7.41,3.36,3.36,0,0,0-.58,1.14C312,122.81,311.87,123.19,311.62,123.94Zm-.79,0,.58-1.68a3.57,3.57,0,0,0,.24-1.23c0-.27-.16-.4-.38-.4a1,1,0,0,0-.68.41,4.18,4.18,0,0,0-.62,1.17c-.24.67-.36,1-.61,1.67Z"/><path class="cls-18" d="M315.83,116.54c-1.9.13-2.84.22-4.68.44.47-1.29.71-2,1.18-3.26a12.93,12.93,0,0,1,1.53-3,3.52,3.52,0,0,1,1.66-1.52l.71-.19c.52-.14.84.15.95.9a8,8,0,0,1-.36,3.07C316.43,114.4,316.23,115.11,315.83,116.54ZM312.54,115c1.25-.19,1.88-.28,3.16-.44.15-.54.23-.81.39-1.36a3.48,3.48,0,0,0,.17-1.69c-.09-.38-.31-.52-.65-.45l-.73.16a2,2,0,0,0-1,.79,6.21,6.21,0,0,0-.88,1.71C312.81,114.2,312.72,114.46,312.54,115Z"/><path class="cls-18" d="M317.45,143.49v-.05c-1.79-1.35-2.71-2-4.59-3.19-.15-.87-.23-1.3-.38-2.17a61.29,61.29,0,0,1,6.78,4.86l.25,2.27c-1.52.2-2.27.28-3.75.42v0c1.74,1.54,2.59,2.35,4.24,4,.11.9.16,1.35.27,2.24-2.17-.18-3.23-.3-5.33-.6-.17-.85-.25-1.28-.42-2.13,1.49.21,2.24.31,3.76.48v0c-1.73-1.71-2.62-2.53-4.44-4.08l-.3-1.62C315.07,143.8,315.86,143.71,317.45,143.49Z"/><path class="cls-18" d="M316.66,128.27c.74.12,1.24.69,1.52,1.75a30,30,0,0,1,.25,3.92,6.32,6.32,0,0,1-.42,3.5,1.42,1.42,0,0,1-1.82.81L315,137.9a4.23,4.23,0,0,1-2.21-1.85c-.68-1-1.6-2.18-1.18-3.56a8.5,8.5,0,0,1,1.75-3.31,2.53,2.53,0,0,1,2.2-1.08ZM315,130.48a1.54,1.54,0,0,0-1.36.46,3.56,3.56,0,0,0-1,1.75,2.17,2.17,0,0,0,.69,1.93,2.56,2.56,0,0,0,1.39.95l1.21.31a1.05,1.05,0,0,0,1.21-.36,2.61,2.61,0,0,0,.29-1.82,9,9,0,0,0-.29-2.07,1.34,1.34,0,0,0-1-.94Z"/><path class="cls-18" d="M317.76,124c.92.09,1.39.13,2.33.24l-.53,2.53c-2.4-.36-3.58-.51-5.92-.75.5-1.73.75-2.59,1.24-4.33a11.88,11.88,0,0,1,1.29-3.11c.48-.75,1-1.16,1.47-1.17a.6.6,0,0,1,.6.47,4.08,4.08,0,0,1,.15,1.45,5,5,0,0,1,.84-1.56,1.29,1.29,0,0,1,.93-.49h.4a1.12,1.12,0,0,0,1-.64h.08c-.21,1.06-.31,1.59-.52,2.64a.83.83,0,0,1-.51.44,2.09,2.09,0,0,1-.57.09l-.39,0a.94.94,0,0,0-.77.48,4.17,4.17,0,0,0-.56,1.41C318.09,122.55,318,123,317.76,124Zm-.9-.08c.21-.83.31-1.25.52-2.09a4.43,4.43,0,0,0,.17-1.52c-.05-.34-.21-.51-.46-.51a.94.94,0,0,0-.73.48,4.46,4.46,0,0,0-.61,1.44c-.22.83-.34,1.24-.56,2.06Z"/><path class="cls-18" d="M322,114.89c-2.15.08-3.21.14-5.29.33.43-1.61.65-2.41,1.08-4a15,15,0,0,1,1.49-3.72c.61-1,1.19-1.66,1.78-1.81l.79-.2c.58-.15,1,.24,1.15,1.19a10.58,10.58,0,0,1-.15,3.81Zm-3.87-2.13c1.41-.18,2.12-.26,3.56-.39.13-.67.2-1,.34-1.69a4.73,4.73,0,0,0,.06-2.1q-.21-.7-.78-.6l-.82.17a1.93,1.93,0,0,0-1.1.93,6.61,6.61,0,0,0-.86,2.1Z"/><path class="cls-18" d="M324.86,148.18v-.06c-1.86-1.72-2.82-2.54-4.78-4.1-.1-1.07-.16-1.61-.26-2.69a66.43,66.43,0,0,1,7.05,6.24c0,1.13.06,1.69.11,2.81-1.67.2-2.49.27-4.11.38v.05c1.79,2,2.66,3,4.34,5.15.05,1.11.07,1.67.12,2.77-2.34-.31-3.49-.5-5.75-.95-.12-1.05-.18-1.58-.31-2.64,1.61.32,2.42.47,4.06.74v-.06c-1.77-2.18-2.68-3.22-4.56-5.2-.09-.8-.13-1.2-.21-2C322.25,148.48,323.11,148.4,324.86,148.18Z"/><path class="cls-18" d="M324,129.31c.85.17,1.46.91,1.86,2.23a18.6,18.6,0,0,1,.78,4.89,8.81,8.81,0,0,1-.71,4.3c-.52,1-1.19,1.26-2.05.94l-1.26-.46a4.69,4.69,0,0,1-2.28-2.37,11.61,11.61,0,0,1-1.25-4.44,5.69,5.69,0,0,1,1.27-4.07c.77-1,1.56-1.44,2.4-1.27ZM322.23,132a1.54,1.54,0,0,0-1.51.53,2.7,2.7,0,0,0-.49,2.16,5.27,5.27,0,0,0,.73,2.4,2.71,2.71,0,0,0,1.44,1.23l1.3.41a1.1,1.1,0,0,0,1.35-.4,3.54,3.54,0,0,0,.45-2.23,5.44,5.44,0,0,0-.63-2.59,2.24,2.24,0,0,0-1.36-1.21Z"/><path class="cls-18" d="M324.89,124c1.05.15,1.58.22,2.65.39-.15,1.26-.23,1.88-.39,3.13-2.75-.53-4.1-.76-6.76-1.15.43-2.13.64-3.2,1.06-5.36a14,14,0,0,1,1.21-3.83c.49-.93,1-1.41,1.57-1.41.32,0,.56.21.72.62a5.52,5.52,0,0,1,.29,1.81,5.68,5.68,0,0,1,.82-1.92,1.26,1.26,0,0,1,1-.57h.46a1.07,1.07,0,0,0,.56-.16,1.12,1.12,0,0,0,.49-.6h.09c-.15,1.32-.23,2-.38,3.28a.9.9,0,0,1-.54.53,2.12,2.12,0,0,1-.64.08l-.45,0c-.31,0-.59.16-.82.57a4.72,4.72,0,0,0-.53,1.72C325.15,122.22,325.06,122.8,324.89,124Zm-1-.13c.17-1,.25-1.55.42-2.58a6.06,6.06,0,0,0,.07-1.9c-.08-.42-.27-.64-.56-.65s-.56.18-.8.57a5.39,5.39,0,0,0-.57,1.77c-.19,1-.28,1.54-.47,2.56C322.72,123.67,323.1,123.72,323.87,123.82Z"/><path class="cls-18" d="M328.93,112.82c-2.44,0-3.63,0-6,.19.37-2,.55-3,.9-5a17.86,17.86,0,0,1,1.4-4.57c.62-1.28,1.23-2,1.88-2.18L328,101c.66-.15,1.12.35,1.41,1.54a14.39,14.39,0,0,1,.12,4.75C329.3,109.53,329.18,110.63,328.93,112.82ZM324.36,110c1.59-.17,2.39-.23,4-.33l.25-2.09a6.46,6.46,0,0,0-.1-2.62c-.19-.61-.5-.86-.93-.79l-.92.17c-.43.08-.82.45-1.18,1.11a8.15,8.15,0,0,0-.81,2.59Z"/><path class="cls-18" d="M332.65,154.39v-.07c-1.88-2.18-2.85-3.22-4.85-5.2l-.1-3.31a69.86,69.86,0,0,1,7.16,7.91c0,1.38-.05,2.07-.09,3.45-1.81.17-2.7.23-4.45.3v.07c1.79,2.47,2.65,3.76,4.3,6.46,0,1.37,0,2.05-.06,3.41-2.5-.47-3.73-.75-6.13-1.4-.06-1.29-.09-1.93-.14-3.23,1.7.45,2.57.66,4.31,1.05v-.07c-1.74-2.74-2.65-4-4.53-6.54,0-1-.06-1.48-.09-2.46C329.82,154.67,330.75,154.59,332.65,154.39Z"/><path class="cls-18" d="M332.37,131.22c1,.24,1.7,1.17,2.29,2.82a16.36,16.36,0,0,1,.74,6,12.41,12.41,0,0,1-1.08,5.25c-.63,1.16-1.38,1.49-2.28,1.07l-1.32-.62a5.14,5.14,0,0,1-2.29-3,15,15,0,0,1-1-5.47,8.62,8.62,0,0,1,1-5c.79-1.19,1.64-1.71,2.6-1.47Zm-1.63,3.25a1.31,1.31,0,0,0-1.54.6,4.63,4.63,0,0,0-.57,2.63,6.77,6.77,0,0,0,.61,3,3,3,0,0,0,1.47,1.56l1.37.55a1.14,1.14,0,0,0,1.49-.43,5,5,0,0,0,.64-2.72,7.21,7.21,0,0,0-.5-3.19,2.47,2.47,0,0,0-1.51-1.54Z"/><path class="cls-18" d="M333,124.65c1.2.22,1.81.34,3,.59-.08,1.54-.13,2.31-.21,3.84-3.12-.76-4.65-1.09-7.67-1.68.31-2.63.46-3.94.76-6.59a17.19,17.19,0,0,1,1.07-4.67c.47-1.13,1-1.69,1.66-1.67.36,0,.64.28.86.8a7.74,7.74,0,0,1,.46,2.24,6.53,6.53,0,0,1,.79-2.32,1.22,1.22,0,0,1,1.1-.66l.52,0a1.1,1.1,0,0,0,.62-.17,1.27,1.27,0,0,0,.51-.72h.1c-.07,1.61-.11,2.41-.19,4a.92.92,0,0,1-.56.63,2,2,0,0,1-.71.07l-.51-.06c-.36,0-.66.18-.89.67a5.86,5.86,0,0,0-.46,2.1C333.14,122.53,333.08,123.24,333,124.65Zm-1.15-.2c.11-1.27.16-1.9.27-3.17a8,8,0,0,0-.06-2.34c-.13-.52-.36-.8-.69-.83s-.6.2-.84.68a6.16,6.16,0,0,0-.52,2.15c-.13,1.26-.19,1.89-.32,3.14C330.52,124.22,331,124.29,331.82,124.45Z"/><path class="cls-18" d="M336.67,111.12c-2.74-.11-4.09-.12-6.73-.07.25-2.44.38-3.66.62-6.12a21.28,21.28,0,0,1,1.23-5.58c.59-1.54,1.23-2.42,2-2.58l1-.21c.73-.15,1.3.5,1.71,2a19.18,19.18,0,0,1,.5,5.86C336.85,107.1,336.79,108.44,336.67,111.12Zm-5.37-3.71c1.78-.12,2.69-.16,4.52-.2.05-1,.07-1.53.12-2.56a9,9,0,0,0-.3-3.23c-.27-.75-.64-1.09-1.13-1l-1,.15c-.47.07-.88.52-1.24,1.31a9.39,9.39,0,0,0-.72,3.15C331.43,106,331.39,106.45,331.3,107.41Z"/><rect class="cls-19" x="763.78" y="0.08" width="180" height="244.69"/><circle class="cls-20" cx="851.4" cy="61.17" r="61.17"/><path class="cls-3" d="M853.74,123.1h0l-1.46-.18-.33-.2,2.17.29.31.2-.86.14h0c.59.09.88.15,1.46.26l.31.2-1.33.1-.34-.19,1-.06h0l-1.51-.26-.26-.15Z"/><path class="cls-3" d="M853.54,121.77c.21,0,.33,0,.34.11s-.08.19-.28.32-.37.24-.39.33-.14.12-.36.11h-.32a2.7,2.7,0,0,1-.74-.12c-.28-.08-.25-.18,0-.3a3.27,3.27,0,0,1,.73-.3,2.8,2.8,0,0,1,.74-.14Zm-.66.22a2.07,2.07,0,0,0-.85.23c-.12.07-.16.12-.14.16a.5.5,0,0,0,.3.06h.33a1.16,1.16,0,0,0,.4-.07,1.21,1.21,0,0,0,.4-.17c.11-.07.16-.13.13-.17s-.11,0-.25,0Z"/><path class="cls-3" d="M854.15,121.39l.7,0-.33.21-1.76.08.64-.37a4,4,0,0,1,.6-.28,2.54,2.54,0,0,1,.53-.13c.09,0,.15,0,.17,0s0,0-.05.11a1.6,1.6,0,0,1,.37-.15l.32-.06.13,0,.17,0,.18-.05h0l-.34.23-.19,0-.18,0H855a1.44,1.44,0,0,0-.54.18Zm-.27,0,.29-.18q.15-.09.15-.12s0,0-.11,0a.91.91,0,0,0-.26,0,1.75,1.75,0,0,0-.28.13l-.3.18Z"/><path class="cls-3" d="M856.06,120.56l-1.71.17.59-.34a5.21,5.21,0,0,1,.71-.33,4.41,4.41,0,0,1,.7-.19l.28,0c.2,0,.3,0,.3,0s-.1.17-.3.31Zm-1.1-.06,1.17-.13.22-.14c.12-.08.17-.13.16-.17s-.09,0-.22,0l-.28,0a2.53,2.53,0,0,0-.42.1,3.14,3.14,0,0,0-.41.19Z"/><path class="cls-3" d="M856.72,123.55h0l-1.77-.27-.4-.27c1.07.15,1.6.24,2.65.42l.36.28c-.43.08-.64.12-1.06.18h0c.71.14,1.06.22,1.77.38l.36.29c-.67,0-1,.08-1.64.1l-.4-.27c.46,0,.7,0,1.16-.06h0c-.73-.17-1.1-.25-1.84-.4l-.29-.2C856.05,123.67,856.27,123.63,856.72,123.55Z"/><path class="cls-3" d="M856,121.69c.27,0,.42,0,.44.15s-.08.27-.32.46,0,.34,0,.46-.18.16-.45.15h-.39a3.26,3.26,0,0,1-.9-.18c-.34-.11-.81-.25-.56-.42a3.42,3.42,0,0,1,.88-.42,2.93,2.93,0,0,1,.9-.18Zm-.79.3a2.54,2.54,0,0,0-.54.09,1.86,1.86,0,0,0-.49.23c-.14.1,0,.17.17.23a2,2,0,0,0,.54.08h.4c.18,0,.28,0,.32-.08s0-.14.17-.24.18-.18.14-.24-.14-.08-.31-.07Z"/><path class="cls-3" d="M856.72,121.17l.86-.06-.39.31-2.17.1.76-.52a3.69,3.69,0,0,1,.7-.38,2.34,2.34,0,0,1,.66-.18c.11,0,.17,0,.2,0s0,.08-.05.15a2.76,2.76,0,0,1,.44-.2,1.53,1.53,0,0,1,.4-.09l.15,0,.21,0a.66.66,0,0,0,.21-.08h0l-.4.32-.23.07-.22,0h-.15a1,1,0,0,0-.33.08,1.26,1.26,0,0,0-.32.18Zm-.34,0,.35-.25c.11-.09.17-.14.17-.18s0-.05-.14,0a1.36,1.36,0,0,0-.32.08,1.35,1.35,0,0,0-.33.18l-.36.24Z"/><path class="cls-3" d="M859,120l-2.09.24.69-.47a5.22,5.22,0,0,1,.85-.46,4.09,4.09,0,0,1,.85-.27l.33-.06c.25,0,.38,0,.38.07s-.11.24-.35.42Zm-1.37-.08,1.44-.19.26-.19q.21-.17.18-.24s-.11,0-.27,0l-.34.06a1.82,1.82,0,0,0-.51.15,2.27,2.27,0,0,0-.49.26Z"/><path class="cls-3" d="M860.26,124.22h0c-.86-.17-1.29-.26-2.15-.41l-.46-.38c1.29.23,1.93.35,3.2.63l.42.4c-.53.1-.79.14-1.31.22h0c.85.22,1.28.33,2.13.57l.41.4c-.81.06-1.21.09-2,.11l-.47-.38,1.42-.06h0c-.88-.24-1.32-.36-2.21-.58l-.35-.28C859.43,124.37,859.7,124.32,860.26,124.22Z"/><path class="cls-3" d="M859,121.6c.33,0,.51.06.56.22s-.53.38-.26.65.39.48.35.64-.24.22-.57.21l-.48,0a3.46,3.46,0,0,1-1.09-.25,3.87,3.87,0,0,1-1-.59c-.29-.24.54-.43.94-.59a3.62,3.62,0,0,1,1.1-.26Zm-1,.42a2.31,2.31,0,0,0-.66.12c-.22.08-.64.19-.48.32a1.71,1.71,0,0,0,.58.32,2.56,2.56,0,0,0,.65.12h.5c.21,0,.35,0,.4-.11s0-.19-.15-.33.11-.27.06-.34-.18-.12-.4-.12Z"/><path class="cls-3" d="M859.79,120.86l1.06-.07-.44.43-2.69.13.89-.73a4.21,4.21,0,0,1,.84-.53,2.51,2.51,0,0,1,.79-.26c.13,0,.21,0,.25,0s0,.11,0,.21a2.42,2.42,0,0,1,.52-.28,1.72,1.72,0,0,1,.48-.13l.18,0,.26,0a1.19,1.19,0,0,0,.26-.11h0c-.18.18-.27.27-.46.44a.79.79,0,0,1-.27.1,1.47,1.47,0,0,1-.27,0l-.19,0a1,1,0,0,0-.39.12,1.31,1.31,0,0,0-.37.24Zm-.41,0,.4-.36a.56.56,0,0,0,.2-.24q0-.08-.18-.06a1.29,1.29,0,0,0-.39.11,1.7,1.7,0,0,0-.39.25l-.41.35Z"/><path class="cls-3" d="M862.48,119.21l-2.56.35.81-.66a5.85,5.85,0,0,1,1-.65,4.14,4.14,0,0,1,1-.38l.41-.09c.3-.07.46,0,.47.1s-.11.33-.39.59S862.79,118.92,862.48,119.21Zm-1.69-.1,1.75-.27.29-.28c.16-.15.23-.26.2-.33s-.14-.07-.33,0l-.41.08a2.84,2.84,0,0,0-.62.21,3,3,0,0,0-.57.37Z"/><path class="cls-3" d="M864.53,125.22h0c-1-.26-1.54-.38-2.59-.62l-.53-.53c1.57.34,2.34.52,3.87.93.19.23.28.35.47.57-.66.14-1,.19-1.63.29h0c1,.32,1.54.49,2.55.85l.47.57c-1,.07-1.49.08-2.45.08l-.53-.53c.68,0,1,0,1.73,0h0c-1-.37-1.57-.54-2.63-.87l-.4-.4C863.51,125.41,863.85,125.36,864.53,125.22Z"/><path class="cls-3" d="M862.61,121.49c.41,0,.64.09.72.32s-.16.54.15.92.43.69.35.91-.3.32-.71.3l-.59,0a3.42,3.42,0,0,1-1.31-.38,4.11,4.11,0,0,1-1.22-.83c-.34-.34.2-.61.68-.84a3.42,3.42,0,0,1,1.33-.35Zm-1.14.59a2.37,2.37,0,0,0-.8.18c-.27.11-.32.26-.14.44a1.92,1.92,0,0,0,.68.45,2.31,2.31,0,0,0,.79.18l.61,0c.26,0,.43,0,.5-.15s0-.27-.15-.47a3.39,3.39,0,0,1-.36-.49c-.07-.11-.24-.17-.51-.16Z"/><path class="cls-3" d="M863.57,120.43l1.3-.09-.5.62-3.31.17,1-1a4.5,4.5,0,0,1,1-.76,2.55,2.55,0,0,1,1-.36c.16,0,.26,0,.31.06s0,.16,0,.3a3.12,3.12,0,0,1,.6-.4,1.68,1.68,0,0,1,.58-.18l.23,0,.31-.08a.89.89,0,0,0,.31-.15h0l-.52.63a.84.84,0,0,1-.32.14l-.33.06-.23,0a1.3,1.3,0,0,0-.48.16,1.79,1.79,0,0,0-.43.35Zm-.51,0,.46-.5c.14-.16.22-.28.21-.35s-.08-.1-.23-.08a1.63,1.63,0,0,0-.46.15,2.14,2.14,0,0,0-.46.36c-.18.2-.28.3-.47.49Z"/><path class="cls-3" d="M866.71,118.09l-3.12.5.93-.94a6.39,6.39,0,0,1,1.17-.91,4.39,4.39,0,0,1,1.21-.56l.49-.13c.36-.09.56,0,.59.13s-.1.47-.41.85S867.05,117.67,866.71,118.09Zm-2.1-.14,2.12-.39.34-.4c.18-.22.25-.38.21-.47s-.18-.1-.41,0l-.5.12a2.62,2.62,0,0,0-.73.3,3.22,3.22,0,0,0-.68.52Z"/><path class="cls-3" d="M869,126.14h0c-1.11-.34-1.68-.5-2.81-.8l-.54-.68c1.7.44,2.55.68,4.2,1.2l.47.73c-.75.17-1.12.24-1.84.37h0c1.11.42,1.66.63,2.75,1.09.19.29.28.44.46.73-1.11.09-1.66.11-2.73.12l-.54-.69c.77,0,1.15,0,1.94-.05v0c-1.13-.46-1.7-.69-2.85-1.11l-.4-.52C867.86,126.39,868.24,126.31,869,126.14Z"/><path class="cls-3" d="M866.88,121.35c.45,0,.73.12.83.42a3.86,3.86,0,0,0,.38,1.19,1.45,1.45,0,0,1,.3,1.16c-.1.29-.37.41-.82.38l-.65,0a3.31,3.31,0,0,1-1.42-.49,4.14,4.14,0,0,1-1.27-1.07c-.34-.44,0-.79.54-1.07a3.19,3.19,0,0,1,1.44-.45Zm-1.2.77a2,2,0,0,0-.88.21c-.29.15-.17.33,0,.58a2,2,0,0,0,.71.58,2.08,2.08,0,0,0,.86.23l.67,0c.29,0,.48,0,.57-.19s0-.35-.12-.61-.47-.48-.57-.63-.28-.21-.58-.21Z"/><path class="cls-3" d="M867.84,120l1.45-.11-.5.79-3.67.2,1-1.33a4.9,4.9,0,0,1,1-1,2.44,2.44,0,0,1,1-.45c.18,0,.3,0,.36.08a.49.49,0,0,1,0,.4,2.87,2.87,0,0,1,.64-.52,1.71,1.71,0,0,1,.62-.22l.26,0,.33-.09a1.25,1.25,0,0,0,.34-.19h0l-.52.82a.82.82,0,0,1-.35.17,3,3,0,0,1-.36.08l-.25,0a1.2,1.2,0,0,0-.52.2,1.71,1.71,0,0,0-.44.45Zm-.56,0c.18-.26.27-.39.46-.64a.89.89,0,0,0,.2-.46c0-.09-.1-.13-.26-.11a1.22,1.22,0,0,0-.5.2,1.88,1.88,0,0,0-.48.46l-.47.63Z"/><path class="cls-3" d="M871.1,117l-3.43.6.94-1.21a6.08,6.08,0,0,1,1.21-1.16,4.08,4.08,0,0,1,1.3-.7l.53-.16c.4-.11.63-.06.68.18a1.7,1.7,0,0,1-.37,1.09Zm-2.36-.21,2.34-.48.34-.51q.27-.42.18-.6c-.06-.11-.21-.14-.47-.07l-.55.14a2.54,2.54,0,0,0-.78.38,3,3,0,0,0-.7.67Z"/><path class="cls-3" d="M873.93,127.32v0c-1.21-.42-1.82-.63-3.06-1l-.52-.88c1.85.56,2.76.87,4.55,1.54l.44.93c-.84.22-1.25.31-2.07.48h0c1.2.53,1.79.8,3,1.38l.45.94c-1.26.12-1.87.15-3.06.17l-.53-.89c.85,0,1.28,0,2.16-.08v0c-1.21-.59-1.82-.87-3.06-1.4l-.4-.67C872.62,127.64,873.05,127.54,873.93,127.32Z"/><path class="cls-3" d="M871.65,121.21a.9.9,0,0,1,1,.53,15.39,15.39,0,0,0,.57,1.52,1.94,1.94,0,0,1,.23,1.49c-.14.36-.45.51-.94.47l-.73,0a3.16,3.16,0,0,1-1.53-.62,4.51,4.51,0,0,1-1.3-1.38c-.33-.55-.12-1,.42-1.37a3.05,3.05,0,0,1,1.56-.57Zm-1.26,1c-.32,0-.81.09-.92.27s-.07.42.11.74a2.15,2.15,0,0,0,.73.74,2,2,0,0,0,.93.3l.75,0a.65.65,0,0,0,.65-.24.79.79,0,0,0-.08-.77,1.9,1.9,0,0,0-.71-.8c-.3-.19-.36-.28-.7-.28Z"/><path class="cls-3" d="M872.6,119.48l1.6-.13c-.19.41-.29.61-.48,1l-4.08.22c.41-.68.62-1,1-1.69a5.06,5.06,0,0,1,1-1.25,2.22,2.22,0,0,1,1.09-.57.38.38,0,0,1,.41.1.7.7,0,0,1,0,.52,2.58,2.58,0,0,1,.66-.66,1.55,1.55,0,0,1,.67-.28l.29,0a1.6,1.6,0,0,0,.36-.11,1.21,1.21,0,0,0,.35-.24h.06l-.5,1a.81.81,0,0,1-.37.22,1.73,1.73,0,0,1-.4.09l-.28,0a1,1,0,0,0-.55.26,1.63,1.63,0,0,0-.45.57C872.88,118.93,872.79,119.11,872.6,119.48Zm-.62,0,.44-.82a1.07,1.07,0,0,0,.18-.58c0-.11-.12-.16-.3-.14a1.2,1.2,0,0,0-.54.25,2.06,2.06,0,0,0-.49.58l-.46.81Z"/><path class="cls-3" d="M875.94,115.68l-3.78.72.93-1.54a6.69,6.69,0,0,1,1.23-1.49,4,4,0,0,1,1.39-.88l.58-.19c.44-.14.69-.06.78.25a2.16,2.16,0,0,1-.31,1.4C876.44,114.64,876.27,115,875.94,115.68Zm-2.66-.31,2.57-.57.32-.66a1,1,0,0,0,.15-.77c-.08-.15-.25-.18-.54-.1l-.6.17a2.26,2.26,0,0,0-.84.48,3,3,0,0,0-.71.84Z"/><path class="cls-3" d="M879,128.78v0c-1.3-.54-2-.8-3.3-1.28-.2-.45-.31-.67-.51-1.11,2,.71,3,1.1,4.92,1.94.17.47.25.71.41,1.18-1,.27-1.42.39-2.34.59v0c1.28.66,1.91,1,3.16,1.74.16.47.25.7.41,1.18a33.79,33.79,0,0,1-3.41.22l-.52-1.12c1,0,1.44,0,2.41-.1v0c-1.29-.74-2-1.1-3.28-1.78l-.38-.83C877.49,129.17,878,129.05,879,128.78Z"/><path class="cls-3" d="M876.64,121.06a1.06,1.06,0,0,1,1.13.68c.19.48.47,1.13.74,1.92a2.69,2.69,0,0,1,.13,1.86,1,1,0,0,1-1.09.61l-.8-.08a3,3,0,0,1-1.64-.78,4.88,4.88,0,0,1-1.32-1.74,1.28,1.28,0,0,1,.33-1.73,2.93,2.93,0,0,1,1.69-.72Zm-1.33,1.22a1,1,0,0,0-.86.34,1,1,0,0,0,.06.93,2.21,2.21,0,0,0,.74.93,1.91,1.91,0,0,0,1,.38l.82,0a.75.75,0,0,0,.74-.3,1.09,1.09,0,0,0,0-1,2.09,2.09,0,0,0-.71-1,1.35,1.35,0,0,0-.93-.35Z"/><path class="cls-3" d="M877.53,118.88l1.78-.15-.45,1.27-4.52.25,1-2.14a5.55,5.55,0,0,1,1-1.57,2.21,2.21,0,0,1,1.17-.72.43.43,0,0,1,.47.14,1.05,1.05,0,0,1,.09.66,3.21,3.21,0,0,1,.68-.84,1.82,1.82,0,0,1,.73-.35l.31-.05a1.6,1.6,0,0,0,.4-.14,1,1,0,0,0,.37-.3h.06l-.45,1.32a1,1,0,0,1-.4.27,3.13,3.13,0,0,1-.44.11l-.3,0a1.06,1.06,0,0,0-.6.33,2,2,0,0,0-.46.72Zm-.69.06c.17-.41.26-.62.42-1a1.45,1.45,0,0,0,.16-.74q-.06-.23-.36-.18a1,1,0,0,0-.57.31,2.27,2.27,0,0,0-.49.73l-.45,1Z"/><path class="cls-3" d="M880.93,114.1l-4.17.87.9-2a7.42,7.42,0,0,1,1.24-1.87,3.91,3.91,0,0,1,1.47-1.1l.64-.23c.48-.17.77-.07.89.33a3,3,0,0,1-.21,1.77C881.38,112.79,881.23,113.22,880.93,114.1Zm-3-.43,2.82-.69.3-.83a1.3,1.3,0,0,0,.1-1c-.1-.19-.3-.24-.61-.14l-.66.21a2.45,2.45,0,0,0-.9.59,3.72,3.72,0,0,0-.72,1.07Z"/><path class="cls-3" d="M884.31,130.59v0c-1.4-.67-2.12-1-3.56-1.61l-.47-1.4c2.16.9,3.22,1.39,5.3,2.45.14.59.22.89.36,1.48-1.08.34-1.61.49-2.65.74v0c1.37.84,2,1.27,3.36,2.18.15.6.22.89.36,1.49a34,34,0,0,1-3.81.27l-.48-1.4c1.06,0,1.6,0,2.69-.13v0c-1.37-.94-2.07-1.38-3.49-2.23-.14-.42-.21-.63-.36-1.06C882.63,131.08,883.18,130.93,884.31,130.59Z"/><path class="cls-3" d="M882,120.9a1.28,1.28,0,0,1,1.32.87,14.1,14.1,0,0,1,.88,2.4,3.82,3.82,0,0,1,0,2.34,1.11,1.11,0,0,1-1.26.75l-.88-.09a3,3,0,0,1-1.76-1A5.79,5.79,0,0,1,879,124a1.88,1.88,0,0,1,.29-2.17,2.85,2.85,0,0,1,1.82-.89Zm-1.36,1.53a.91.91,0,0,0-.86.43,1.39,1.39,0,0,0,0,1.16,2.59,2.59,0,0,0,.74,1.17,1.82,1.82,0,0,0,1.09.48l.91.07a.84.84,0,0,0,.85-.38,1.62,1.62,0,0,0,.06-1.22,2.51,2.51,0,0,0-.71-1.26,1.67,1.67,0,0,0-1.13-.45Z"/><path class="cls-3" d="M882.83,118.17l2-.18c-.15.64-.23,1-.39,1.6l-5,.29.92-2.69a6.37,6.37,0,0,1,1-2,2.16,2.16,0,0,1,1.24-.89.48.48,0,0,1,.54.18,1.46,1.46,0,0,1,.16.82,3.23,3.23,0,0,1,.69-1,1.62,1.62,0,0,1,.78-.44l.35-.06a1.59,1.59,0,0,0,.43-.17,1.24,1.24,0,0,0,.39-.37l.06,0-.4,1.65a.83.83,0,0,1-.42.34,2.54,2.54,0,0,1-.48.14l-.33,0a1,1,0,0,0-.64.4,2.5,2.5,0,0,0-.45.91C883.08,117.3,883,117.59,882.83,118.17Zm-.76.07c.16-.51.23-.77.39-1.29a1.94,1.94,0,0,0,.1-.92.32.32,0,0,0-.41-.24,1.07,1.07,0,0,0-.61.39,2.48,2.48,0,0,0-.49.92c-.16.51-.24.77-.41,1.28Z"/><path class="cls-3" d="M886.22,112.19l-4.58,1c.34-1,.5-1.47.83-2.45a8.32,8.32,0,0,1,1.24-2.34,4,4,0,0,1,1.54-1.37l.7-.28c.52-.2.85-.07,1,.43a4.18,4.18,0,0,1-.09,2.22C886.62,110.54,886.49,111.09,886.22,112.19Zm-3.4-.57,3.1-.84c.1-.42.16-.63.27-1a1.86,1.86,0,0,0,0-1.22q-.19-.36-.69-.18l-.72.25a2.35,2.35,0,0,0-1,.74,4,4,0,0,0-.71,1.33C883,111,883,111.24,882.82,111.62Z"/><path class="cls-3" d="M890.27,132.9v0c-1.51-.85-2.27-1.26-3.82-2l-.41-1.76a62.11,62.11,0,0,1,5.68,3.08c.11.75.17,1.12.28,1.86-1.23.43-1.83.61-3,.94v0c1.45,1,2.16,1.59,3.55,2.73.11.75.17,1.12.28,1.86a34,34,0,0,1-4.27.36c-.16-.7-.24-1.06-.41-1.76,1.18,0,1.78-.06,3-.17v0c-1.45-1.17-2.19-1.73-3.69-2.8l-.31-1.33C888.37,133.52,889,133.33,890.27,132.9Z"/><path class="cls-3" d="M888.21,120.73a1.56,1.56,0,0,1,1.55,1.09,11.58,11.58,0,0,1,1,3,5.32,5.32,0,0,1-.21,2.94,1.31,1.31,0,0,1-1.45.94l-1-.12a3,3,0,0,1-1.87-1.25,6.87,6.87,0,0,1-1.28-2.75,2.89,2.89,0,0,1,.31-2.73,2.74,2.74,0,0,1,2-1.11Zm-1.3,1.91a1.07,1.07,0,0,0-1,.53,2,2,0,0,0-.11,1.47,3,3,0,0,0,.73,1.47,1.75,1.75,0,0,0,1.17.61l1,.09a1,1,0,0,0,1-.47,2.28,2.28,0,0,0,.16-1.53,2.91,2.91,0,0,0-.68-1.59,1.6,1.6,0,0,0-1.21-.57Z"/><path class="cls-3" d="M888.89,117.3l2.18-.22-.3,2-5.57.33L886,116a8,8,0,0,1,1-2.48,2.19,2.19,0,0,1,1.32-1.11.54.54,0,0,1,.61.23,2.25,2.25,0,0,1,.25,1,4.06,4.06,0,0,1,.67-1.31,1.63,1.63,0,0,1,.85-.54l.37-.08a1.33,1.33,0,0,0,.47-.2,1.26,1.26,0,0,0,.41-.47H892c-.12.82-.19,1.24-.31,2.06a.92.92,0,0,1-.44.43,2.61,2.61,0,0,1-.52.17l-.37.06a1,1,0,0,0-.68.5,2.72,2.72,0,0,0-.42,1.14Zm-.84.08c.12-.65.18-1,.31-1.63a2.58,2.58,0,0,0,0-1.16.38.38,0,0,0-.48-.3,1,1,0,0,0-.65.48,3.15,3.15,0,0,0-.46,1.16l-.35,1.61Z"/><path class="cls-3" d="M892.16,109.79l-5,1.28c.29-1.23.43-1.85.72-3.08a10,10,0,0,1,1.17-2.94,4,4,0,0,1,1.61-1.7l.76-.35c.56-.25,1-.07,1.19.56a6,6,0,0,1,.09,2.8C892.46,107.73,892.36,108.42,892.16,109.79Zm-3.85-.75,3.39-1c.08-.52.12-.78.21-1.3a2.66,2.66,0,0,0-.08-1.53.56.56,0,0,0-.79-.25l-.79.31a2.31,2.31,0,0,0-1,.92,4.69,4.69,0,0,0-.68,1.67C888.47,108.31,888.41,108.56,888.31,109Z"/><path class="cls-3" d="M896.45,135.75v-.05c-1.6-1.07-2.41-1.58-4.07-2.55-.12-.88-.18-1.32-.31-2.2a65.37,65.37,0,0,1,6.06,3.87l.16,2.32c-1.4.53-2.09.76-3.42,1.16v0c1.53,1.31,2.27,2,3.73,3.42.06.93.1,1.39.16,2.32a33.91,33.91,0,0,1-4.77.45c-.13-.88-.19-1.32-.31-2.2,1.31,0,2-.08,3.34-.21v0c-1.51-1.47-2.29-2.17-3.88-3.5-.09-.67-.14-1-.23-1.66C894.29,136.52,895,136.28,896.45,135.75Z"/><path class="cls-3" d="M894.81,120.55c.78,0,1.37.42,1.81,1.37a10.69,10.69,0,0,1,1,3.78,7.61,7.61,0,0,1-.46,3.66c-.41.9-1,1.27-1.69,1.17l-1.06-.15a3,3,0,0,1-2-1.57,8.63,8.63,0,0,1-1.2-3.44,4.56,4.56,0,0,1,.41-3.4,2.77,2.77,0,0,1,2.09-1.39Zm-1.28,2.39a1.23,1.23,0,0,0-1.14.66,2.84,2.84,0,0,0-.24,1.82,3.8,3.8,0,0,0,.7,1.85,1.78,1.78,0,0,0,1.24.76l1.1.11a1.09,1.09,0,0,0,1.12-.58,3.17,3.17,0,0,0,.3-1.91,3.7,3.7,0,0,0-.63-2,1.58,1.58,0,0,0-1.29-.71Z"/><path class="cls-3" d="M895.29,116.27l2.41-.26c-.07,1-.1,1.5-.17,2.5l-6.18.39.6-4.23a10.22,10.22,0,0,1,.87-3.09c.4-.79.85-1.26,1.38-1.38a.61.61,0,0,1,.7.3,3.23,3.23,0,0,1,.36,1.29,4.63,4.63,0,0,1,.65-1.62,1.56,1.56,0,0,1,.9-.66l.41-.1a1.42,1.42,0,0,0,.5-.26,1.37,1.37,0,0,0,.42-.57l.08,0c-.07,1-.11,1.54-.18,2.58a1,1,0,0,1-.45.52,2,2,0,0,1-.58.21l-.4.07a1.1,1.1,0,0,0-.72.62,3.7,3.7,0,0,0-.38,1.42C895.42,114.9,895.38,115.35,895.29,116.27Zm-.93.1c.09-.82.13-1.23.22-2a3.76,3.76,0,0,0-.05-1.45.46.46,0,0,0-.56-.37,1.06,1.06,0,0,0-.69.59,3.92,3.92,0,0,0-.42,1.44c-.1.81-.15,1.21-.26,2Z"/><path class="cls-3" d="M898.33,106.91l-5.5,1.56.55-3.85a12.21,12.21,0,0,1,1.07-3.67,4.35,4.35,0,0,1,1.66-2.11l.82-.42c.61-.31,1.06-.08,1.38.71a8.39,8.39,0,0,1,.32,3.5Zm-4.35-1,3.7-1.25c.05-.65.08-1,.13-1.63a3.7,3.7,0,0,0-.21-1.92.63.63,0,0,0-.91-.31l-.84.38a2.29,2.29,0,0,0-1.05,1.13,6,6,0,0,0-.63,2.09C894.09,105,894.06,105.33,894,105.94Z"/><path class="cls-3" d="M902.88,139.26v-.06c-1.69-1.34-2.56-2-4.32-3.19-.07-1.09-.11-1.63-.18-2.73a64.49,64.49,0,0,1,6.42,4.83V141c-1.59.64-2.37.93-3.87,1.42v.07c1.59,1.62,2.37,2.48,3.88,4.25v2.89a36.54,36.54,0,0,1-5.33.55c-.07-1.1-.11-1.65-.18-2.74a37.15,37.15,0,0,0,3.73-.26v-.06c-1.57-1.82-2.38-2.69-4-4.36-.06-.82-.08-1.23-.14-2.06C900.42,140.2,901.23,139.91,902.88,139.26Z"/><path class="cls-3" d="M901.92,120.37c.86,0,1.56.53,2.12,1.72a11.08,11.08,0,0,1,.85,4.69,10.93,10.93,0,0,1-.79,4.55c-.52,1.1-1.17,1.57-2,1.44l-1.17-.19c-.8-.14-1.48-.8-2.07-2a10.8,10.8,0,0,1-1.07-4.28,7.38,7.38,0,0,1,.61-4.22,2.82,2.82,0,0,1,2.23-1.72Zm-1.3,3a1.48,1.48,0,0,0-1.32.81,4.08,4.08,0,0,0-.4,2.27,4.83,4.83,0,0,0,.63,2.3,1.82,1.82,0,0,0,1.32.95l1.22.14a1.26,1.26,0,0,0,1.28-.72,4.54,4.54,0,0,0,.48-2.37,4.86,4.86,0,0,0-.55-2.47,1.63,1.63,0,0,0-1.38-.9Z"/><path class="cls-3" d="M902.13,115.05l2.67-.31v3.11l-6.85.46.34-5.27a13.32,13.32,0,0,1,.74-3.84c.38-1,.85-1.56,1.42-1.71a.69.69,0,0,1,.8.38,4.4,4.4,0,0,1,.51,1.61,6,6,0,0,1,.6-2,1.58,1.58,0,0,1,.95-.82l.45-.12a1.38,1.38,0,0,0,.55-.32,1.49,1.49,0,0,0,.41-.71l.09,0v3.2a1.05,1.05,0,0,1-.47.65,2,2,0,0,1-.62.26l-.45.09a1.09,1.09,0,0,0-.75.76,4.87,4.87,0,0,0-.31,1.76Zm-1,.11c0-1,0-1.52.09-2.53a5.24,5.24,0,0,0-.17-1.8c-.14-.38-.35-.53-.65-.47s-.53.31-.73.73a5.23,5.23,0,0,0-.35,1.79c0,1-.08,1.51-.14,2.51Z"/><path class="cls-3" d="M904.81,103.43l-6,1.9c.12-1.92.18-2.87.31-4.79A16.32,16.32,0,0,1,900,96a4.82,4.82,0,0,1,1.7-2.6l.88-.51c.66-.38,1.18-.1,1.59.89a11.87,11.87,0,0,1,.63,4.35Zm-4.94-1.24,4-1.52c0-.81,0-1.22,0-2a5.28,5.28,0,0,0-.38-2.38c-.27-.49-.61-.62-1-.4l-.92.46a2.59,2.59,0,0,0-1.08,1.4,7.84,7.84,0,0,0-.54,2.59Z"/><circle class="cls-21" cx="851.4" cy="183.51" r="61.17"/><path class="cls-22" d="M810.74,233.48h-6.82V219.31H790v14.17h-6.84V199.36H790V214h13.93V199.36h6.82Z"/><path class="cls-22" d="M839.31,218.48H825.18v9.73H841.7v5.27H818.34V199.36h23.32v5.27H825.18v8.58h14.13Z"/><path class="cls-22" d="M853.94,228.21h15.19v5.27h-22V199.36h6.84Z"/><path class="cls-22" d="M881.11,228.21H896.3v5.27h-22V199.36h6.84Z"/><path class="cls-22" d="M927.5,219.49a14.37,14.37,0,0,1-4,10.39A13.75,13.75,0,0,1,913.2,234a13.57,13.57,0,0,1-10.24-4.1A14.39,14.39,0,0,1,899,219.49v-6.14A14.41,14.41,0,0,1,903,203a13.48,13.48,0,0,1,10.23-4.11A13.74,13.74,0,0,1,923.51,203a14.29,14.29,0,0,1,4,10.37Zm-6.85-6.17a10.35,10.35,0,0,0-2-6.55,6.55,6.55,0,0,0-5.48-2.56,6.39,6.39,0,0,0-5.42,2.55,10.62,10.62,0,0,0-1.92,6.56v6.2a10.61,10.61,0,0,0,1.95,6.62,6.39,6.39,0,0,0,5.41,2.56,6.54,6.54,0,0,0,5.49-2.56,10.55,10.55,0,0,0,2-6.62Z"/><g id="圖層_1-2-2" data-name="圖層 1-2"><rect class="cls-23" y="0.94" width="180" height="244.69"/><circle class="cls-20" cx="87.62" cy="62.03" r="61.17"/><circle class="cls-20" cx="87.62" cy="184.37" r="61.17"/><g class="cls-24"><path class="cls-22" d="M125,74.2a61.2,61.2,0,0,0-6.55-4.26c-2.27-1.23-2.27-1.23-3.49-1.81,2.15,1.13,5,2.69,7,4,5,3.57,5.13,3.64,7.52,5.78,1.3,1.27,3.06,3,4.3,4.28L133,81.4a65.32,65.32,0,0,0-8-7.2"/></g><g class="cls-25"><path class="cls-22" d="M47.93,125.49c-2.12.6-4.14,1.14-6,1.62a75.81,75.81,0,0,1-.59-18.06l-.44.11a73,73,0,0,1-7.62,1.57,65.63,65.63,0,0,0-.59,18.3,21.72,21.72,0,0,1-2.79.23A62.9,62.9,0,0,1,40.64,87.67a11.88,11.88,0,0,0,1.58-.13,61.9,61.9,0,0,0-7.49,16.67,69.53,69.53,0,0,0,7-1.45l.41-.1a60.56,60.56,0,0,1,5.31-16.21c1.08-.27,2.23-.58,3.43-.92-4.46,11.11-5.63,25.3-3,40"/><path class="cls-22" d="M79.91,115c-9,3.27-17.87,6.27-25.75,8.67-3.07-14.53-2.88-28.43.3-39.17,4.47-1.36,9.5-3.06,14.61-4.92.33,1.38.7,2.85,1.11,4.4-4.19,1.52-8.34,3-12.25,4.23a79.52,79.52,0,0,0-.17,9c4-1.33,8.24-2.79,12.57-4.33.46,1.81,1,3.68,1.48,5.59-4.68,1.68-9.28,3.26-13.66,4.68.35,3.76.92,7.67,1.7,11.68,5.71-1.86,11.77-4,17.89-6.18q1,3.12,2.17,6.36"/><path class="cls-22" d="M109.44,103.34c-7.71,3.31-16.18,6.68-24.68,9.85C79.6,99.37,75,87.09,71.86,78.53c1.5-.56,3-1.13,4.48-1.71A242.24,242.24,0,0,1,90,104c5.58-2.16,11-4.39,16.16-6.58,1.12,1.91,2.22,3.89,3.27,5.92"/><path class="cls-22" d="M131.41,92.86c-3,1.71-7.07,3.75-12.11,6.08q-2.79,1.29-5.79,2.61c-7.11-13-16.16-23.49-25.31-29.64,1.14-.5,2.24-1,3.3-1.49L92,70.2c8.89,4.66,17.47,12.56,24.48,22.66q6.72-3.14,10.85-5.48,2.16,2.64,4.1,5.53"/><path class="cls-22" d="M125.48,74.8c5.24,4,8.68,8,8,9.14-1.23.75-4.6-1.9-10.46-6.66a64.48,64.48,0,0,0-6.43-4.57c-9.62-6-9.62-6-8.73-6.31.35-.13,3.68,0,11,4a62.28,62.28,0,0,1,6.65,4.35M122.08,72c-2.08-1.24-4.89-2.85-7-4l-1.43-.66c-7.77-3.31-12.06-3.59-12.52-2.74.11.74.11.74,13.13,9.52a64.67,64.67,0,0,1,6.11,4.69c17.3,15,17.63,10.29,17.63,9.7,0-1.37-2.27-5-8.45-10.68-4.5-3.74-5.2-4.32-7.52-5.78"/><path class="cls-22" d="M79.94,166.5c-1.67.54-3.29,1.05-4.88,1.53a103.72,103.72,0,0,1-17.82-17.59h-.11c1.68,5.83,3.58,12.44,9.11,20.08l-2.13.55-1.72.41c-5.56-4.14-17.11-12.77-24.72-29.77,1.17-.22,2.47-.48,3.91-.81A76.74,76.74,0,0,0,57.06,163h.11c-2.58-5.39-5.25-11-7.17-24.22l4.19-1.2a107.82,107.82,0,0,0,16.75,21.52h.12c-2.09-5.58-4.26-11.35-6.51-24.65,2.1-.68,4.25-1.4,6.44-2.13,1.26,8.43,3.36,22.54,9,34.25"/><path class="cls-22" d="M103.17,144.34c1.11,3.78,1.33,8.75-4,11-5.45,1.74-8.61-2.14-10.3-5.7-.85-1.93-1.69-3.93-2.55-6-4.07-10.84,4.7-14.41,9.55-12,3.36,1.68,4.65,5.06,5.21,6.5.73,2.11,1.42,4.16,2.09,6.16m6.52-2.59c-.57-2-1.2-4.07-1.86-6.18-2.81-7.68-9.94-14.15-21.51-9.27-7.48,4-10,11.38-6.68,19.73.9,2,1.81,4,2.72,5.86,7.64,14.13,24.16,9.27,27.38-1.59a15.17,15.17,0,0,0,0-8.55"/><path class="cls-22" d="M128.61,123.13c.89,4.49-2.44,6.1-3.7,6.7q-2.55,1.13-5.23,2.27c-.88-3.45-2-7-3.22-10.59q2.81-1.2,5.48-2.38c4.73-1.88,6.21,1.7,6.67,4m8.4,20.92a1.57,1.57,0,0,1,.05-.48c-.3-.41-.76-1-.75-4.75v-2.55c-.35-6.58-3.46-6.52-5-6.49,6.27-7.76.94-18.25-6.75-17.69a14.7,14.7,0,0,0-4.78,1.3c-3.8,1.68-7.82,3.39-12,5.1q.59,1.49,1.14,3a151.31,151.31,0,0,1,8.36,31.37c1.85-.76,3.68-1.53,5.46-2.29a94,94,0,0,0-1.81-13c1.92-.81,3.79-1.63,5.61-2.43,2.93-1.17,4.53,0,4.89,3.54.06.81.1,1.61.13,2.41.18,4.17.53,4.61.87,5a39.66,39.66,0,0,0,4.58-2"/><path class="cls-22" d="M147.79,123.34c.18,5.69-.83,9.91-2.69,11.28-.55.34-1.15.69-1.8,1.07a65.54,65.54,0,0,0-3.16-25.44c.74-.42,1.41-.82,2-1.2,2.47-1.2,4.2,3.37,5,8a62.37,62.37,0,0,1,.62,6.25m1.37-1.18a59.47,59.47,0,0,0-.57-6.25c-1.19-7.18-4.11-14.82-8.42-12.69q-2.37,1.47-5.94,3.32.62,1.5,1.17,3a68.51,68.51,0,0,1,4.09,33.36q3-1.56,5-2.79c3.54-2.62,4.92-10.86,4.71-17.86"/><path class="cls-22" d="M78.09,179.86l-.48.12-1.45.35a47.9,47.9,0,0,1-5.69-2.84l.66-.15a49.22,49.22,0,0,0,4.72,2.47l.9-.22.49-.13.85.4"/><path class="cls-22" d="M80.84,179.11l-2.27.6a48.68,48.68,0,0,1-5.36-2.92c.83-.22,1.69-.44,2.57-.69.26.18.51.35.77.51l-1.8.49c.44.27.87.53,1.31.78l1.49-.4.79.47-1.46.39c.5.28,1,.54,1.51.8l1.65-.45.8.42"/><path class="cls-22" d="M80.37,177.67,79,176.31h0l2.34,1.09-.94.27m3.15.67.75-.21c-1.82-.79-4.22-1.87-6-2.73l-.83.24a45.28,45.28,0,0,0,3.64,3.4l.71-.2-.83-.66,1.29-.37,1.27.53"/><path class="cls-22" d="M83.9,175.24c.46.41,0,.56-.16.62l-.71.22c-.43-.31-.86-.64-1.28-1l.75-.23a1.49,1.49,0,0,1,1.4.36M87.78,177h-.06a2.25,2.25,0,0,1-.84-.4l-.3-.23a2.54,2.54,0,0,0-1.68-.53c.63-.79-1.17-1.78-2.5-1.62a5.05,5.05,0,0,0-.56.12l-1.61.48A44,44,0,0,0,84.74,178l.75-.22c-.6-.38-1.19-.77-1.78-1.19l.77-.23a1.49,1.49,0,0,1,1.3.3l.31.21a2,2,0,0,0,.89.45l.8-.25"/><path class="cls-22" d="M91.68,175.8l-.81.27c-1.29-.5-3-1.17-4.29-1.69h0c.89.79,1.78,1.53,2.67,2.21l-.79.25a45.43,45.43,0,0,1-4-3.32l.9-.28c1.31.55,3,1.29,4.36,1.81h0c-.84-.75-1.67-1.55-2.51-2.41l.93-.3a44.6,44.6,0,0,0,3.56,3.45"/><path class="cls-22" d="M97.61,173.8l-.86.3c-.39-.47-.78-1-1.18-1.46l-1.82.63c.43.49.86,1,1.28,1.41l-.84.29c-1.06-1.07-2.13-2.27-3.21-3.57l1-.33c.45.57.9,1.11,1.34,1.64l1.85-.64c-.41-.53-.82-1.09-1.24-1.67l1-.33c.93,1.35,1.85,2.6,2.75,3.73"/><path class="cls-22" d="M100.25,171c.35.65.23,1.11-.37,1.35a1.38,1.38,0,0,1-1.61-.65l-.46-.69c-.78-1.28.52-1.61,1.07-1.48a1.54,1.54,0,0,1,1,.76l.42.71m.92-.33-.39-.72a2.43,2.43,0,0,0-3.22-.93,1.47,1.47,0,0,0-.93,1.86,1.38,1.38,0,0,0,.25.46l.48.68c1.35,1.75,3.81,1,4-.34a1.59,1.59,0,0,0-.21-1"/><path class="cls-22" d="M106.77,170.49l-.81.3c-.58-.7-1.33-1.64-1.91-2.34h0c.1.88.21,2.05.32,2.93l-.82.29-3.09-3.6,1-.35,2,2.58h0c-.12-1-.28-2.22-.38-3.18l.72-.27,2,2.57h0c-.11-1-.27-2.23-.38-3.19l1-.36c.1,1.39.24,3.23.35,4.62"/><path class="cls-22" d="M112.55,164.28l-1.36.54c.26,1.31.48,2.56.66,3.72l-.85.32c-.21-1.15-.46-2.39-.75-3.69l-1.36.52c-.06-.23-.13-.46-.19-.7,1.26-.48,2.51-1,3.75-1.46l.12.73"/><path class="cls-22" d="M116.11,165a1.57,1.57,0,0,1-.9,1.6c-.59.21-.94-.07-1-.83a3,3,0,0,0-.08-.83c-.12-1.55,1.18-2,1.65-1.6a1.18,1.18,0,0,1,.33.81V165m.89-.36v-.86c-.07-1-.71-1.88-2.31-1.17a2.65,2.65,0,0,0-1.5,2.7,7.35,7.35,0,0,0,.1.82c.34,2.09,2.41,1.34,3.23.11a2.78,2.78,0,0,0,.5-1.6"/><path class="cls-22" d="M122.54,163.15c-.35,1.51-2.49,2.49-3.05,1.68a1.07,1.07,0,0,1-.13-.68h0l.84-.34c-.06,1.16,1.19.21,1.2.19.27-.24.69-1-.06-1.08a5.92,5.92,0,0,1-1.19,0,.65.65,0,0,1-.5-.36,1.9,1.9,0,0,1,.67-2,3.26,3.26,0,0,1,1-.63c1-.4,1.62-.08,1.54.87h0l-.85.37c0-.93-.88-.45-1.13-.23s-.8,1.05.06,1.11a5.29,5.29,0,0,1,.89,0,1.52,1.52,0,0,1,.55.16c.32.23.23.77.18,1"/><path class="cls-22" d="M124.39,161.69l.86-2.26h0l.14,1.83-1,.44m1,1.24.76-.34a41.66,41.66,0,0,0-.31-4.61l-.9.39c-.64,1.72-1.52,4-2.22,5.72l.8-.34.49-1.18,1.39-.61v1"/><path class="cls-22" d="M128.88,159.79c-.18.63-.38,1.24-.58,1.85l-.72.33c.2-.62.38-1.25.55-1.88-.17-.86-.37-2-.61-2.84l.92-.41.33,2.12h0l1.47-2.94.4-.19.47-.22c-.67,1.26-1.7,2.88-2.25,4.19"/><path class="cls-22" d="M133.68,159.06l-.57.29c.34-.76.66-1.53,1-2.32l-1.31.64c-.27.77-.57,1.54-.88,2.28l-.64.31a49.48,49.48,0,0,0,1.86-5.59l.72-.34c-.23.83-.48,1.66-.75,2.47l1.32-.66c.3-.82.57-1.65.83-2.5l.65-.33a47.55,47.55,0,0,1-2.19,5.75"/><path class="cls-22" d="M136,157.86c-.54.29-1.12.6-1.73.91a51.49,51.49,0,0,0,2.27-5.79l2-1-.34.93-1.34.71c-.18.5-.36,1-.55,1.49l1.11-.59c-.12.31-.25.62-.38.92l-1.1.58c-.22.55-.46,1.09-.7,1.63l1.23-.65c-.15.3-.29.6-.44.89"/><path class="cls-22" d="M137.77,156.86l-1.37.77a52.89,52.89,0,0,0,2.56-5.94l.5-.28a51.61,51.61,0,0,1-2.16,5.08l.94-.54-.47.91"/><path class="cls-22" d="M139.17,156l-1.11.69a54.6,54.6,0,0,0,2.78-6.08l.42-.25a55,55,0,0,1-2.35,5.19l.76-.48-.5.93"/><path class="cls-22" d="M141.5,152.86a8.55,8.55,0,0,1-1.15,1.87h-.06a5.38,5.38,0,0,1,.61-1.44c.18-.37.37-.75.54-1.13.61-1.29,1-1.9,1.14-1.92s.09.18-.52,1.48c-.19.39-.37.77-.56,1.14m.24-.18c.19-.38.38-.75.56-1.13.81-1.72.94-2.42.71-2.33a.71.71,0,0,0-.14.1,13.1,13.1,0,0,0-1.75,3.06c-.17.38-.35.75-.53,1.12a7.13,7.13,0,0,0-.88,2.18c.31.07,1.39-1.75,2-3"/></g></g></g></g></svg>